<?xml version="1.0" encoding="UTF-8"?>
<svg width="579px" height="373px" viewBox="0 0 579 373" version="1.1" xmlns="http://www.w3.org/2000/svg" xmlns:xlink="http://www.w3.org/1999/xlink">
    <!-- Generator: Sketch 52.5 (67469) - http://www.bohemiancoding.com/sketch -->
    <title>BG-DRAW</title>
    <desc>Created with Sketch.</desc>
    <g id="Desktop" stroke="none" stroke-width="1" fill="none" fill-rule="evenodd" opacity="0.604422433">
        <g id="Homepage" transform="translate(-431.000000, -4927.000000)" fill="#341957">
            <g id="Footer" transform="translate(0.000000, 4873.000000)">
                <g id="BG-DRAW" style="mix-blend-mode: multiply;" transform="translate(720.500000, 243.500000) rotate(-90.000000) translate(-720.500000, -243.500000) translate(531.000000, -46.000000)">
                    <g id="gear" transform="translate(0.000000, 0.000000)">
                        <path d="M329.187265,473.010963 L328.480487,472.617268 L330.089765,469.840123 L330.796543,470.233818 L329.187265,473.010963 Z M331.818653,468.403669 L331.101001,468.020615 L332.666786,465.222189 L333.384438,465.605244 L331.818653,468.403669 Z M334.417421,463.721893 L333.699769,463.349479 C334.214449,462.413123 334.721879,461.473221 335.22206,460.529772 L335.950585,460.902186 L334.417421,463.721893 Z M336.950947,459.008195 L336.222422,458.646421 L337.701219,455.805434 L338.429744,456.167208 L336.950947,459.008195 Z M339.40836,454.251936 L338.679835,453.900802 L340.115137,451.038534 L340.843662,451.389668 L339.40836,454.251936 Z M341.800531,449.463755 L341.061132,449.123262 C341.532318,448.165626 341.999878,447.204443 342.463815,446.239713 L343.203213,446.580206 C342.768273,447.516562 342.31521,448.463557 341.844025,449.421193 L341.800531,449.463755 Z M344.116587,444.643653 L343.377189,444.313801 L344.736377,441.408971 L345.475776,441.738824 L344.116587,444.643653 Z M346.367403,439.79163 L345.617131,439.472418 C346.05932,438.500595 346.497885,437.525225 346.932825,436.546308 L347.683097,436.86552 C347.255406,437.808969 346.831339,438.770152 346.410897,439.749069 L346.367403,439.79163 Z M348.542104,434.907686 L347.791832,434.599114 C348.219523,433.620197 348.64359,432.641281 349.064032,431.662364 L349.814304,431.970935 C349.415609,432.914384 349.00604,433.875567 348.585598,434.854484 L348.542104,434.907686 Z M350.651564,429.991821 L349.901292,429.683249 C350.314485,428.697238 350.724054,427.711228 351.129998,426.725217 L351.891144,427.023149 C351.506946,427.980785 351.108251,428.952608 350.695058,429.938619 L350.651564,429.991821 Z M352.68491,425.044034 L351.923764,424.756743 C352.322459,423.763639 352.71753,422.770535 353.108976,421.777431 L353.870122,422.064722 C353.507671,423.022358 353.127099,423.997728 352.728404,424.990832 L352.68491,425.044034 Z M354.642141,420.074967 L353.880995,419.787676 C354.265192,418.794572 354.627643,417.797921 354.968346,416.797723 L355.729491,417.074373 C355.417784,418.039103 355.058958,419.021567 354.653014,420.021765 L354.642141,420.074967 Z M356.523257,415.073978 L355.751238,414.807968 C356.120937,413.80777 356.483387,412.804026 356.838589,411.796734 L357.610607,412.062744 C357.291651,413.027474 356.947324,414.013485 356.577624,415.020776 L356.523257,415.073978 Z M358.339132,410.041068 L357.567113,409.785699 C357.922315,408.778407 358.284765,407.771116 358.654464,406.763825 L359.426483,407.019194 C359.08578,407.991018 358.737828,408.980575 358.382626,409.987866 L358.339132,410.041068 Z M360.078893,404.986878 L359.306874,404.742148 C359.647577,403.727763 359.981032,402.713379 360.307237,401.698994 L361.079256,401.943723 C360.782047,402.92264 360.452217,403.919291 360.089767,404.933676 L360.078893,404.986878 Z M361.742539,399.900766 L360.959647,399.666677 C361.285852,398.652292 361.604808,397.63436 361.916516,396.612882 L362.699408,396.846971 C362.409448,397.832981 362.10499,398.836726 361.786034,399.858204 L361.742539,399.900766 Z M363.330071,394.804014 L362.547179,394.580565 C362.858886,393.559087 363.163344,392.537608 363.460553,391.51613 L364.243446,391.739578 C363.975233,392.725589 363.678023,393.729333 363.351818,394.750812 L363.330071,394.804014 Z M364.841489,389.67534 L364.058596,389.462532 C364.355805,388.441054 364.645765,387.416028 364.928477,386.387456 L365.711369,386.600264 C365.450405,387.593368 365.174943,388.614847 364.884983,389.6647 L364.841489,389.67534 Z M366.276791,384.525386 L365.493899,384.323218 C365.769361,383.294646 366.044823,382.266074 366.320285,381.237502 L367.114051,381.43967 C366.860336,382.439867 366.595747,383.454252 366.320285,384.482824 L366.276791,384.525386 Z M367.635979,379.364791 L366.842213,379.173264 C367.103178,378.144692 367.360517,377.112573 367.614232,376.076907 L368.407998,376.268435 C368.183279,377.268632 367.947687,378.283017 367.70122,379.311589 L367.635979,379.364791 Z M368.919053,374.182916 L368.125287,374.002029 C368.371753,372.966363 368.614595,371.927151 368.853812,370.884392 L369.647578,371.054638 C369.437357,372.069023 369.209013,373.094048 368.962547,374.129714 L368.919053,374.182916 Z M370.126012,368.97976 L369.332246,368.809513 C369.564214,367.773848 369.792558,366.734635 370.017277,365.691876 L370.811043,365.851482 C370.61532,366.830399 370.39785,367.855424 370.158633,368.926558 L370.126012,368.97976 Z M371.213363,363.755323 L370.408723,363.595717 C370.626193,362.552957 370.840039,361.510198 371.05026,360.467439 L371.854899,360.616404 C371.695421,361.630789 371.506947,362.659361 371.289477,363.702121 L371.213363,363.755323 Z M372.300713,358.520245 L371.496074,358.37128 C371.699046,357.321427 371.894769,356.257387 372.083243,355.179159 L372.887882,355.317485 C372.728404,356.374431 372.547179,357.424284 372.344207,358.467043 L372.300713,358.520245 Z M373.279329,353.274527 L372.474689,353.136202 C372.663163,352.086349 372.844388,351.022309 373.018365,349.944082 L373.823004,350.071767 C373.670775,351.12162 373.500423,352.171473 373.311949,353.221325 L373.279329,353.274527 Z M374.170956,348.007529 L373.366317,347.879844 C373.540293,346.829991 373.70702,345.765951 373.866498,344.687724 L374.671137,344.804768 C374.533406,345.854621 374.384802,346.904474 374.225324,347.954327 L374.170956,348.007529 Z M374.986469,342.687328 L374.18183,342.570284 C374.341308,341.513337 374.493537,340.449297 374.638517,339.378163 L375.443156,339.484567 C375.356168,340.562795 375.218437,341.626835 375.029963,342.676688 L374.986469,342.687328 Z M375.725867,337.367128 L374.921228,337.260724 C375.058959,336.203777 375.193066,335.139737 375.323548,334.068603 L376.128187,334.164367 C376.026701,335.256781 375.907092,336.331462 375.769361,337.388408 L375.725867,337.367128 Z M376.389151,332.046927 L375.573638,331.951163 C375.696871,330.894217 375.81648,329.830177 375.932464,328.759043 L376.747977,328.844166 C376.660989,329.950768 376.545005,331.036089 376.400025,332.100129 L376.389151,332.046927 Z M376.97632,326.726726 L376.160808,326.652244 C376.269543,325.595297 376.374653,324.531257 376.476139,323.460123 L377.291652,323.534606 C377.219162,324.641208 377.12855,325.726529 377.019814,326.790569 L376.97632,326.726726 Z M377.487375,321.406526 L376.671862,321.342683 C376.766099,320.278643 376.853087,319.214603 376.932826,318.150563 L377.748339,318.214405 C377.690347,319.321007 377.603359,320.406328 377.487375,321.470368 L377.487375,321.406526 Z M377.911442,316.086325 L377.095929,316.033123 C377.175668,314.969083 377.248158,313.905043 377.313399,312.841003 L378.128912,312.841003 C378.092667,313.983072 378.034675,315.086127 377.954936,316.150167 L377.911442,316.086325 Z M378.259394,310.766124 L377.443881,310.766124 C377.509122,309.702084 377.567114,308.638044 377.617857,307.574004 L378.43337,307.574004 C378.411623,308.673512 378.368129,309.755286 378.302888,310.819326 L378.259394,310.766124 Z M378.531232,305.445924 L377.715719,305.445924 C377.759213,304.381884 377.802707,303.317844 377.846201,302.253803 L378.661714,302.253803 C378.654465,303.346218 378.625469,304.424445 378.574726,305.488485 L378.531232,305.445924 Z M378.726955,300.125723 L377.911442,300.125723 C377.911442,299.061683 377.936813,297.997643 377.987556,296.933603 L378.803069,296.933603 C378.817567,298.01183 378.806694,299.082964 378.770449,300.147004 L378.726955,300.125723 Z M378.846563,294.805523 L378.03105,294.805523 C378.03105,293.741482 378.03105,292.677442 378.03105,291.613402 L378.846563,291.613402 C378.890057,292.677442 378.904555,293.745029 378.890057,294.816163 L378.846563,294.805523 Z M378.846563,289.485322 L378.03105,289.485322 L378.03105,289.272514 C378.03105,288.27941 378.03105,287.286306 378.03105,286.293201 L378.846563,286.293201 C378.846563,287.286306 378.846563,288.282957 378.846563,289.283154 L378.846563,289.485322 Z M377.99843,284.165121 C377.99843,283.101081 377.980307,282.037041 377.944062,280.973001 L378.759575,280.973001 C378.759575,282.037041 378.777698,283.101081 378.813943,284.165121 L377.99843,284.165121 Z M377.889695,278.844921 C377.889695,277.78088 377.857074,276.71684 377.791833,275.6528 L378.607346,275.6528 C378.643591,276.709747 378.679836,277.773787 378.716081,278.844921 L377.889695,278.844921 Z M377.704845,273.52472 C377.661351,272.467773 377.610608,271.403733 377.552616,270.3326 L378.368129,270.3326 C378.418872,271.389546 378.469615,272.453586 378.520358,273.52472 L377.704845,273.52472 Z M377.443881,268.204519 C377.385889,267.147573 377.320648,266.083533 377.248158,265.012399 L378.063671,265.012399 C378.136161,266.069345 378.201402,267.133386 378.259394,268.204519 L377.443881,268.204519 Z M377.106803,262.884319 C377.034312,261.827372 376.954573,260.763332 376.867585,259.692198 L377.683098,259.628356 C377.770086,260.685302 377.849825,261.749343 377.922315,262.820476 L377.106803,262.884319 Z M376.693609,257.564118 C376.599372,256.507172 376.505135,255.443131 376.410898,254.371998 L377.226411,254.297515 C377.327897,255.354461 377.422134,256.418502 377.509122,257.489635 L376.693609,257.564118 Z M376.193428,252.243917 C376.084693,251.186971 375.972333,250.122931 375.856349,249.051797 L376.671862,248.966674 C376.787846,250.02362 376.900206,251.08766 377.008941,252.158794 L376.193428,252.243917 Z M375.617132,246.923717 C375.493899,245.86677 375.367042,244.80273 375.23656,243.731596 L376.041199,243.635833 C376.171681,244.692779 376.298539,245.756819 376.421772,246.827953 L375.617132,246.923717 Z M374.964722,241.656718 C374.826991,240.606865 374.685635,239.542825 374.540655,238.464598 L375.345295,238.358194 C375.490275,239.408047 375.63163,240.472087 375.769361,241.550314 L374.964722,241.656718 Z M374.236197,236.40036 C374.083968,235.350507 373.928114,234.286467 373.768636,233.20824 L374.573276,233.091195 C374.732754,234.141048 374.892232,235.205088 375.05171,236.283316 L374.236197,236.40036 Z M373.431558,231.154642 C373.264831,230.104789 373.090855,229.040749 372.909629,227.962522 L373.714269,227.834837 C373.888245,228.88469 374.062221,229.94873 374.236197,231.026957 L373.431558,231.154642 Z M372.550804,225.919565 C372.369579,224.869712 372.181105,223.823406 371.985381,222.780646 L372.790021,222.642321 C372.985744,223.68508 373.174218,224.749121 373.355443,225.834441 L372.550804,225.919565 Z M371.593935,220.695128 C371.390963,219.652368 371.187991,218.609609 370.985019,217.56685 L371.789658,217.417884 C371.99988,218.460643 372.202852,219.503403 372.398575,220.546162 L371.593935,220.695128 Z M370.560952,215.491971 C370.343482,214.449212 370.126012,213.41 369.908542,212.374334 L370.702308,212.214728 C370.927027,213.257487 371.148122,214.300247 371.365592,215.343006 L370.560952,215.491971 Z M369.473602,210.299456 C369.241634,209.26379 369.006041,208.228124 368.766824,207.192458 L369.56059,207.011572 C369.799807,208.047237 370.0354,209.08645 370.267368,210.129209 L369.473602,210.299456 Z M368.28839,205.128221 C368.041924,204.092555 367.791833,203.060436 367.538118,202.031864 L368.331884,201.840337 C368.585599,202.876002 368.835689,203.911668 369.082156,204.947334 L368.28839,205.128221 Z M367.027063,199.967626 C366.766099,198.939054 366.50151,197.910482 366.233297,196.88191 L367.027063,196.679742 C367.295276,197.708314 367.559865,198.740433 367.820829,199.776099 L367.027063,199.967626 Z M365.689622,194.828312 C365.41416,193.79974 365.135073,192.774715 364.852362,191.753236 L365.635254,191.540428 C365.917966,192.569 366.197052,193.597572 366.472514,194.626145 L365.689622,194.828312 Z M364.276066,189.710279 C363.986106,188.688801 363.692521,187.667322 363.395312,186.645844 L364.178205,186.422395 C364.475414,187.443874 364.772623,188.468899 365.069832,189.497471 L364.276066,189.710279 Z M362.786396,184.613527 C362.481938,183.592048 362.170231,182.574117 361.851275,181.559732 L362.634167,181.325643 C362.953123,182.340028 363.26483,183.35796 363.569288,184.379438 L362.786396,184.613527 Z M361.220611,179.538056 C360.901655,178.523671 360.57545,177.509286 360.241996,176.494901 L361.014015,176.250172 C361.34022,177.264556 361.666425,178.278941 361.99263,179.293326 L361.220611,179.538056 Z M359.633079,174.728594 C359.299625,173.721303 358.958922,172.714012 358.61097,171.70672 L359.382989,171.451351 C359.730941,172.458642 360.071644,173.46948 360.405098,174.483865 L359.633079,174.728594 Z M357.915066,169.663763 C357.567113,168.656472 357.204663,167.652727 356.827715,166.65253 L357.599734,166.38652 C357.962184,167.386717 358.324634,168.390462 358.687084,169.397753 L357.915066,169.663763 Z M356.120937,164.652134 C355.758487,163.651936 355.396037,162.655286 355.033587,161.662181 L355.794732,161.385531 C356.17168,162.385729 356.53413,163.385926 356.882083,164.386124 L356.120937,164.652134 Z M354.261568,159.661786 C353.88462,158.668682 353.500422,157.675578 353.108976,156.682474 L353.870122,156.395183 C354.261568,157.388287 354.645765,158.381391 355.022713,159.374495 L354.261568,159.661786 Z M352.326084,154.703359 C351.934638,153.717348 351.535942,152.731338 351.129998,151.745327 L351.891144,151.447396 C352.297088,152.433407 352.695783,153.422964 353.087229,154.416068 L352.326084,154.703359 Z M350.303612,149.776853 C349.897668,148.790843 349.484474,147.808379 349.064032,146.829462 L349.814304,146.52089 C350.234746,147.499807 350.64794,148.482271 351.053884,149.468282 L350.303612,149.776853 Z M348.215899,144.871628 C347.788208,143.892711 347.360516,142.917341 346.932825,141.945518 L347.683097,141.626306 C348.118037,142.605223 348.545729,143.58414 348.966171,144.563057 L348.215899,144.871628 Z M346.041198,139.998324 C345.599009,139.026501 345.156819,138.058225 344.71463,137.093495 L345.454029,136.763642 C345.903467,137.735466 346.345656,138.707289 346.780596,139.679112 L346.041198,139.998324 Z M343.866497,135.156942 L342.496435,132.262753 L343.235833,131.92226 C343.69977,132.88699 344.156457,133.851719 344.605895,134.816449 L343.866497,135.156942 Z M341.604808,130.358121 L340.191252,127.485213 L340.919777,127.134079 L342.333332,130.006988 L341.604808,130.358121 Z M339.234383,125.580581 C338.755949,124.630038 338.270266,123.679496 337.777334,122.728953 L338.505859,122.36718 C338.998791,123.317722 339.484474,124.268265 339.962908,125.218807 L339.234383,125.580581 Z M336.798718,120.834962 L335.298175,118.004615 L336.015826,117.632201 C336.523256,118.57565 337.023437,119.522646 337.51637,120.473188 L336.798718,120.834962 Z M334.286939,116.121264 L332.742901,113.312198 L333.460552,112.929144 L335.00459,115.73821 L334.286939,116.121264 Z M331.709918,111.450128 L330.13326,108.662343 L330.840037,108.268648 L332.427569,111.056433 L331.709918,111.450128 Z M329.056782,106.810913 L327.43663,104.044409 L328.143408,103.640073 L329.76356,106.406578 L329.056782,106.810913 Z" id="Shape" fill-rule="nonzero"></path>
                        <path d="M2.42755614,466.094702 L2.42755614,465.296672 L5.68960773,465.23283 L5.68960773,466.03086 L2.42755614,466.094702 Z M7.8643088,465.945737 L7.8643088,465.147706 L11.1263604,464.9881 L11.1263604,465.78613 L7.8643088,465.945737 Z M13.3010615,465.637165 L13.2466939,464.839135 L16.5087455,464.583765 L16.5848601,465.381795 L13.3010615,465.637165 Z M18.7378141,465.168987 L18.6508261,464.370957 L21.9128777,464.019824 L22.0107392,464.807214 L18.7378141,465.168987 Z M24.1745668,464.541204 L24.0658317,463.753814 L27.3278833,463.306917 L27.4474919,464.094307 L24.1745668,464.541204 Z M29.6113194,463.753814 L29.4808374,462.966424 C30.5536899,462.796178 31.6410404,462.615291 32.742889,462.423764 L32.8842445,463.211153 C31.760649,463.416868 30.6443024,463.604848 29.5352049,463.775095 L29.6113194,463.753814 Z M34.9828311,462.817459 L34.830602,462.030069 L38.0274126,461.391645 L38.2013886,462.168394 L34.9828311,462.817459 Z M40.3217222,461.753418 L40.1368726,460.976669 C41.1952271,460.74258 42.2535816,460.497851 43.3119361,460.242481 L43.5076592,461.019231 L40.3217222,461.753418 Z M45.6279928,460.497851 L45.4213962,459.721102 C46.4725017,459.458639 47.5236072,459.181988 48.5747127,458.89115 L48.7921828,459.657259 C47.7193303,459.93391 46.6537268,460.207013 45.5953723,460.47657 L45.6279928,460.497851 Z M50.8907694,459.082678 L50.6624257,458.316569 C51.7062823,458.018638 52.7465143,457.710066 53.7831218,457.390854 L54.0223389,458.156963 L50.8907694,459.082678 Z M56.1100519,457.507898 L55.8599613,456.75243 L58.9480368,455.68839 L59.2090009,456.443858 C58.1578954,456.805632 57.1140389,457.153218 56.0774314,457.486618 L56.1100519,457.507898 Z M61.2749669,455.784153 L61.0031293,455.028685 L64.0585843,453.964645 L64.3521689,454.709473 C63.3083124,455.049966 62.2717049,455.401099 61.2423464,455.762873 L61.2749669,455.784153 Z M66.3855144,453.900802 L66.0919298,453.155974 C67.1067903,452.765826 68.1144018,452.368584 69.1147643,451.964249 L69.4300959,452.698437 C68.3934884,453.095679 67.3677544,453.489373 66.3528939,453.879521 L66.3855144,453.900802 Z M71.4308209,451.868486 L71.1046157,451.134298 C72.0977292,450.715776 73.0872182,450.290159 74.0730827,449.85745 L74.4101614,450.580997 C73.3953009,451.006613 72.3876894,451.428682 71.3873269,451.847205 L71.4308209,451.868486 Z M76.4000128,449.740405 L76.0520607,449.016858 L78.9879071,447.644246 L79.3467328,448.357153 C78.3391213,448.789863 77.3423833,449.229666 76.3565188,449.676563 L76.4000128,449.740405 Z M81.2930902,447.420798 L80.9233911,446.707891 C81.8947575,446.23262 82.858875,445.746708 83.8157435,445.250156 L84.1963162,445.952423 C83.2032027,446.413507 82.2209627,446.881684 81.2495962,447.356956 L81.2930902,447.420798 Z M86.0774326,444.899023 L85.6859864,444.196756 C86.6428549,443.693111 87.5924743,443.178825 88.5348448,442.653898 L88.9371645,443.345524 L86.0774326,444.899023 Z M90.8291544,442.292124 L90.4159612,441.600498 C91.3510827,441.068478 92.2825796,440.525818 93.2104521,439.972517 L93.6345188,440.653503 C92.7066463,441.206804 91.7679004,441.753011 90.8182809,442.292124 L90.8291544,442.292124 Z M95.4938882,439.546901 L95.058948,438.865915 C95.9795714,438.305521 96.8965704,437.738033 97.8099448,437.163451 L98.2557585,437.833796 C97.3351351,438.408378 96.4145116,438.979413 95.4938882,439.546901 Z M100.071634,436.663352 L99.6149467,436.003647 C100.521072,435.414878 101.419949,434.819016 102.311576,434.21606 L102.779137,434.875765 C101.88026,435.471627 100.977759,436.06749 100.071634,436.663352 Z M104.562392,433.641478 L104.094831,432.992414 C104.979209,432.375271 105.859963,431.75458 106.737093,431.130344 L107.215527,431.768768 C106.338397,432.400098 105.454019,433.024335 104.562392,433.641478 Z M108.911794,430.449358 L108.422486,429.810934 C109.292366,429.17251 110.151373,428.523445 110.999507,427.86374 L111.499688,428.491524 C110.680551,429.179603 109.817919,429.846402 108.911794,430.491919 L108.911794,430.449358 Z M113.261196,427.172114 L112.750141,426.554971 C113.598275,425.888173 114.439159,425.21428 115.272794,424.533295 L115.794723,425.150438 C114.961087,425.859798 114.116578,426.547877 113.261196,427.214676 L113.261196,427.172114 Z M117.458369,423.767186 L116.925567,423.160683 C117.751954,422.451323 118.571091,421.741963 119.382979,421.032603 L119.926655,421.628465 C119.107517,422.387481 118.28838,423.114575 117.469242,423.809747 L117.458369,423.767186 Z M121.55768,420.245213 L121.014005,419.659991 C121.818645,418.950631 122.616035,418.241271 123.406176,417.531911 L123.960725,418.117133 C123.170584,418.84068 122.369569,419.564227 121.55768,420.287775 L121.55768,420.245213 Z M125.548257,416.595555 L124.982835,416.020974 C125.765727,415.311614 126.54137,414.566786 127.309765,413.786489 L127.886061,414.350431 C127.110417,415.130727 126.331149,415.893289 125.548257,416.638117 L125.548257,416.595555 Z M129.419225,412.828853 L128.832055,412.275553 C129.556956,411.516537 130.310852,410.750428 131.093745,409.977226 L131.691787,410.519886 C130.937891,411.328557 130.18037,412.1124 129.419225,412.871415 L129.419225,412.828853 Z M133.181458,408.955747 L132.583415,408.413087 C133.308315,407.632791 134.033216,406.845401 134.758116,406.050918 L135.367032,406.582938 C134.642132,407.405796 133.909982,408.210919 133.170584,408.998309 L133.181458,408.955747 Z M136.813208,404.976237 L136.193419,404.454858 C136.918319,403.653281 137.621472,402.84461 138.302879,402.028846 L138.933542,402.539585 C138.230389,403.383724 137.523611,404.210128 136.813208,405.018799 L136.813208,404.976237 Z M140.325351,400.879683 L139.694687,400.379584 C140.383343,399.556726 141.061124,398.726775 141.728033,397.88973 L142.36957,398.379188 C141.695412,399.244608 141.014006,400.092293 140.325351,400.922244 L140.325351,400.879683 Z M143.717884,396.687365 L143.065474,396.197906 C143.725133,395.353768 144.377544,394.502536 145.022705,393.64421 L145.675115,394.123028 C145.029954,395.016822 144.373919,395.885788 143.707011,396.729926 L143.717884,396.687365 Z M146.979936,392.431204 L146.316652,391.963026 C146.954564,391.097607 147.581603,390.228641 148.197768,389.356128 L148.871926,389.813665 C148.241262,390.693272 147.606975,391.569332 146.969062,392.441845 L146.979936,392.431204 Z M150.100632,388.047359 L149.426475,387.600462 C150.035391,386.720855 150.637058,385.834155 151.231476,384.940362 L151.916507,385.376618 C151.31484,386.277505 150.705924,387.171299 150.089758,388.057999 L150.100632,388.047359 Z M153.090846,383.56775 L152.405815,383.142134 C152.985735,382.241247 153.558407,381.336812 154.123829,380.428832 L154.819733,380.843807 C154.247062,381.758882 153.667142,382.670409 153.079972,383.57839 L153.090846,383.56775 Z M155.939704,379.003018 L155.232926,378.598683 C155.783851,377.683608 156.327526,376.76144 156.863952,375.832178 L157.57073,376.225873 C157.027055,377.162228 156.479755,378.095037 155.928831,379.024299 L155.939704,379.003018 Z M158.647207,374.353162 L157.929556,373.970108 C158.451484,373.033753 158.966163,372.093851 159.473593,371.150402 L160.191245,371.522816 C159.683815,372.473358 159.165511,373.416807 158.636334,374.353162 L158.647207,374.353162 Z M161.213354,369.628824 L160.484829,369.267051 C160.977762,368.316508 161.463445,367.362419 161.941879,366.404783 L162.670404,366.755916 C162.19197,367.720646 161.702662,368.678282 161.202481,369.628824 L161.213354,369.628824 Z M163.627273,364.819363 L162.887874,364.47887 C163.35181,363.521234 163.808498,362.552957 164.257936,361.57404 L164.997334,361.903893 C164.576892,362.88281 164.11658,363.854633 163.616399,364.819363 L163.627273,364.819363 Z M165.888962,359.946059 L165.13869,359.626847 C165.57363,358.64793 166.001321,357.665466 166.421763,356.679456 L167.172035,356.988028 C166.751593,357.981132 166.323902,358.967142 165.888962,359.946059 Z M167.998422,354.998272 L167.237276,354.700341 C167.64322,353.714331 168.038291,352.721227 168.422488,351.721029 L169.183634,352.00832 C168.799437,352.99433 168.404366,353.994528 167.998422,355.008913 L167.998422,354.998272 Z M169.955653,349.997284 L169.194507,349.720633 C169.571455,348.720436 169.933906,347.716691 170.281858,346.7094 L171.053877,346.96477 C170.698675,347.986248 170.332601,348.997086 169.955653,349.997284 Z M171.760655,344.975014 L170.988636,344.719645 C171.329339,343.70526 171.662793,342.687328 171.988998,341.66585 L172.771891,341.899939 C172.445685,342.90723 172.108607,343.932255 171.760655,344.975014 Z M173.402554,339.867622 L172.619661,339.644173 C172.931369,338.629789 173.232202,337.60831 173.522162,336.579738 L174.305055,336.792546 C174.015095,337.792744 173.714261,338.807129 173.402554,339.835701 L173.402554,339.867622 Z M174.881351,334.728308 L174.098458,334.52614 C174.37392,333.497568 174.642133,332.465449 174.903098,331.429784 L175.696863,331.621311 C175.435899,332.635696 175.164062,333.657174 174.881351,334.685746 L174.881351,334.728308 Z M176.197045,329.546433 L175.403279,329.365546 C175.649745,328.32988 175.885338,327.290668 176.110057,326.247908 L176.903823,326.418155 C176.679103,327.439633 176.443511,328.468205 176.197045,329.503871 L176.197045,329.546433 Z M177.349636,324.332636 L176.544997,324.17303 C176.762467,323.130271 176.965439,322.083965 177.153913,321.034112 L177.958553,321.172437 C177.770078,322.201009 177.570731,323.240221 177.36051,324.290074 L177.349636,324.332636 Z M178.339125,319.076278 L177.534486,318.948593 C177.715711,317.89874 177.886063,316.8347 178.045541,315.756473 L178.85018,315.873517 C178.697951,316.930464 178.531224,317.983863 178.349999,319.033716 L178.339125,319.076278 Z M179.165512,313.756077 L178.360872,313.649673 C178.513101,312.59982 178.650832,311.53578 178.774065,310.457553 L179.578705,310.553316 C179.462721,311.631544 179.328614,312.699131 179.176385,313.756077 L179.165512,313.756077 Z M179.828795,308.435877 L179.013283,308.350753 C179.129267,307.293807 179.234377,306.229767 179.328614,305.158633 L180.144127,305.233116 C180.064388,306.318437 179.966527,307.393117 179.850542,308.457157 L179.828795,308.435877 Z M180.328977,303.115676 L179.513464,303.051833 C179.600452,301.994887 179.676566,300.930847 179.741807,299.859713 L180.55732,299.859713 C180.506577,300.980502 180.437712,302.072917 180.350724,303.136957 L180.328977,303.115676 Z M180.666055,297.795475 L179.850542,297.795475 C179.901285,296.731435 179.94478,295.667395 179.981025,294.603355 L180.796537,294.603355 C180.782039,295.674489 180.74217,296.742076 180.676929,297.806116 L180.666055,297.795475 Z M180.840031,292.475275 L180.024519,292.475275 C180.024519,291.411235 180.024519,290.347194 180.024519,289.283154 L180.024519,288.995863 L180.840031,288.995863 L180.840031,289.283154 C180.883525,290.340101 180.894399,291.400594 180.872652,292.464634 L180.840031,292.475275 Z M180.035392,286.857143 C180.035392,285.793103 180.010021,284.729063 179.959278,283.665022 L180.77479,283.665022 C180.77479,284.729063 180.800162,285.793103 180.850905,286.857143 L180.035392,286.857143 Z M179.883163,281.536942 C179.83242,280.472902 179.774428,279.408862 179.709187,278.344822 L180.5247,278.344822 C180.589941,279.408862 180.647933,280.472902 180.698676,281.536942 L179.883163,281.536942 Z M179.567831,276.216741 C179.488092,275.152701 179.39748,274.088661 179.295994,273.024621 L180.111507,272.950138 C180.212993,274.014178 180.303605,275.078219 180.383344,276.142259 L179.567831,276.216741 Z M179.089397,270.896541 C178.980662,269.839594 178.861053,268.775554 178.730571,267.70442 L179.535211,267.608657 C179.665693,268.665603 179.788926,269.729644 179.90491,270.800777 L179.089397,270.896541 Z M178.44786,265.57634 C178.30288,264.519394 178.150651,263.455354 177.991173,262.38422 L178.795812,262.267175 C178.96254,263.324122 179.118393,264.388162 179.263373,265.459296 L178.44786,265.57634 Z M177.643221,260.319982 C177.469245,259.270129 177.284395,258.206089 177.088672,257.127862 L177.893312,256.978896 C178.089035,258.028749 178.277509,259.092789 178.458734,260.171016 L177.643221,260.319982 Z M176.675479,255.084905 C176.465258,254.042145 176.247788,252.999386 176.023069,251.956627 L176.816834,251.78638 C177.048803,252.82914 177.269897,253.89318 177.480118,254.978501 L176.675479,255.084905 Z M175.588128,249.881748 C175.348911,248.846083 175.098821,247.810417 174.837857,246.774751 L175.631622,246.583224 C175.892587,247.61889 176.146302,248.658102 176.392768,249.700862 L175.588128,249.881748 Z M174.305055,244.721154 C174.029593,243.692582 173.746881,242.664009 173.456921,241.635437 L174.239814,241.422629 C174.529774,242.451201 174.81611,243.48332 175.098821,244.518986 L174.305055,244.721154 Z M172.848005,239.635042 C172.543547,238.613563 172.228215,237.595632 171.90201,236.581247 L172.684902,236.347158 C173.011108,237.368636 173.326439,238.390115 173.630897,239.411594 L172.848005,239.635042 Z M171.238726,234.559571 C170.898023,233.545186 170.535573,232.537894 170.151376,231.537697 L170.923395,231.271687 C171.278596,232.278978 171.641046,233.289816 172.010745,234.304201 L171.238726,234.559571 Z M169.477218,229.526661 C169.107519,228.526463 168.745069,227.529812 168.389868,226.536708 L169.151013,226.249417 C169.542459,227.249615 169.90491,228.249813 170.238364,229.25001 L169.477218,229.526661 Z M167.563481,224.557593 C167.164786,223.571583 166.758842,222.589119 166.345649,221.610202 L167.095921,221.301631 C167.516363,222.280547 167.925932,223.266558 168.324627,224.259662 L167.563481,224.557593 Z M165.497515,219.663009 C165.069824,218.691185 164.63126,217.722909 164.181821,216.758179 L164.92122,216.428327 C165.370658,217.40015 165.809223,218.37552 166.236914,219.354437 L165.497515,219.663009 Z M163.322814,214.832267 C162.866127,213.87463 162.398566,212.916994 161.920132,211.959358 L162.648657,211.608225 C163.127091,212.565861 163.594652,213.527044 164.051339,214.491774 L163.322814,214.832267 Z M160.95239,210.065367 C160.466707,209.114824 159.97015,208.171375 159.46272,207.23502 L160.180371,206.862606 C160.687802,207.806055 161.187983,208.753051 161.680915,209.703593 L160.95239,210.065367 Z M158.44061,205.37295 C157.925931,204.436595 157.400378,203.507333 156.863952,202.585165 L157.57073,202.19147 C158.107156,203.120732 158.636334,204.05354 159.158262,204.989895 L158.44061,205.37295 Z M155.787475,200.755016 C155.2438,199.839941 154.689251,198.928413 154.123829,198.020433 L154.819733,197.605457 C155.385155,198.513438 155.943329,199.428512 156.494253,200.35068 L155.787475,200.755016 Z M152.992984,196.211564 C152.420313,195.310677 151.836768,194.413337 151.24235,193.519543 L151.927381,193.083286 C152.521799,193.97708 153.105344,194.877967 153.678015,195.785948 L152.992984,196.211564 Z M150.057138,191.753236 C149.455471,190.866536 148.846554,189.98693 148.230389,189.114417 L148.904546,188.656879 C149.527961,189.529392 150.140501,190.412546 150.742169,191.306339 L150.057138,191.753236 Z M146.969062,187.401312 C146.338399,186.535893 145.700487,185.67402 145.055325,184.815695 L145.707736,184.336877 C146.352897,185.195202 146.990809,186.060622 147.621473,186.933134 L146.969062,187.401312 Z M143.707011,183.145152 C143.0546,182.301013 142.391317,181.460421 141.717159,180.623376 L142.358696,180.133918 C143.032853,180.970963 143.699762,181.815101 144.359421,182.666334 L143.707011,183.145152 Z M140.368845,178.963474 C139.687438,178.133523 138.998783,177.310665 138.302879,176.494901 L138.933542,175.984162 C139.658442,176.799926 140.350722,177.62633 141.010381,178.463375 L140.368845,178.963474 Z M136.900196,174.87756 C136.175296,174.068889 135.450396,173.267312 134.725495,172.472829 L135.334412,171.940809 C136.059312,172.742386 136.784212,173.54751 137.509113,174.35618 L136.900196,174.87756 Z M133.31194,170.89805 C132.587039,170.11066 131.862139,169.330364 131.137239,168.557161 L131.735281,168.014501 C132.460182,168.787703 133.185082,169.571546 133.909982,170.36603 L133.31194,170.89805 Z M129.571454,166.982382 C128.846554,166.216273 128.085408,165.457258 127.288018,164.705336 L127.864314,164.141395 C128.639957,164.893317 129.404727,165.655879 130.158623,166.429081 L129.571454,166.982382 Z M125.74398,163.21568 C124.968337,162.50632 124.18182,161.772132 123.384429,161.013117 L123.938978,160.427895 C124.736368,161.137255 125.52651,161.874989 126.309402,162.641098 L125.74398,163.21568 Z M121.796898,159.555382 C120.992258,158.846022 120.183994,158.136662 119.372106,157.427302 L119.915781,156.831439 C120.734919,157.540799 121.546807,158.250159 122.351446,158.95952 L121.796898,159.555382 Z M117.74108,156.012128 C116.914694,155.302768 116.084683,154.614689 115.251047,153.947891 L115.772976,153.330747 C116.61386,154.040107 117.447495,154.731733 118.273882,155.405625 L117.74108,156.012128 Z M113.576528,152.59656 C112.735643,151.922667 111.883885,151.259416 111.021254,150.606805 L111.521435,149.979021 C112.384066,150.638726 113.235824,151.305524 114.076709,151.979416 L113.576528,152.59656 Z M109.30324,149.298035 C108.440609,148.652517 107.570728,148.014093 106.693599,147.382763 L107.172033,146.744339 C108.049162,147.375669 108.922667,148.01764 109.792548,148.670251 L109.30324,149.298035 Z M104.953838,146.105915 C104.069459,145.481678 103.181456,144.868081 102.289829,144.265125 L102.75739,143.60542 C103.656266,144.21547 104.551518,144.832613 105.443146,145.45685 L104.953838,146.105915 Z M100.484827,143.06276 C99.5787017,142.466898 98.6689517,141.881675 97.7555773,141.307094 L98.201391,140.636749 C99.1220145,141.218424 100.035389,141.807193 100.941514,142.403055 L100.484827,143.06276 Z M95.9288284,140.15793 C95.0082049,139.590442 94.0803325,139.030048 93.145211,138.476747 L93.5692777,137.795761 C94.5043992,138.349062 95.4358962,138.913004 96.3637686,139.487585 L95.9288284,140.15793 Z M91.2858416,137.391426 C90.3507202,136.852312 89.4083497,136.320292 88.4587302,135.795366 L88.8610499,135.10374 C89.8106694,135.628666 90.7566644,136.164233 91.6990348,136.71044 L91.2858416,137.391426 Z M86.5558668,134.763247 C85.5989983,134.252508 84.6385054,133.748862 83.6743879,133.25231 L84.0549606,132.550044 C85.0263271,133.046596 85.9904445,133.553788 86.947313,134.071621 L86.5558668,134.763247 Z M81.7280304,132.294674 C80.756664,131.812309 79.781673,131.337038 78.8030575,130.86886 L79.1618832,130.155953 C80.1477477,130.624131 81.1263632,131.102949 82.0977296,131.592407 L81.7280304,132.294674 Z M76.8349531,129.943145 C75.8490886,129.489155 74.8595996,129.042258 73.8664861,128.602455 L74.2035648,127.878907 C75.2039273,128.318711 76.1970407,128.765608 77.1829052,129.219598 L76.8349531,129.943145 Z M71.9418757,127.751223 L68.9299147,126.506296 L69.2452463,125.772108 C70.2601068,126.183537 71.2677183,126.602059 72.2680808,127.027675 L71.9418757,127.751223 Z M66.9074427,125.697625 L63.8628612,124.537821 L64.1564458,123.792993 L67.2227743,124.952797 L66.9074427,125.697625 Z M61.8077687,123.792993 C60.7856592,123.424126 59.7563007,123.069446 58.7196932,122.728953 L58.9806573,121.973485 C60.0172648,122.321071 61.0502478,122.675751 62.0796063,123.037525 L61.8077687,123.792993 Z M56.6537272,122.037327 L53.4569166,121.069051 L53.6961337,120.302942 L56.8277033,121.281859 L56.6537272,122.037327 Z M51.4126976,120.462548 L48.2811281,119.579394 L48.4985982,118.813286 L51.6519147,119.696439 L51.4126976,120.462548 Z M46.1825416,119.026094 L43.0183515,118.238704 L43.2140746,117.461955 L46.3891382,118.249344 L46.1825416,119.026094 Z M40.9088915,117.749245 L37.7229544,117.057619 L37.8969305,116.28087 L41.0937411,116.972496 L40.9088915,117.749245 Z M35.5917474,116.632003 L32.3949368,116.036141 L32.5362924,115.248751 L35.798344,115.844614 L35.5917474,116.632003 Z M30.2528563,115.674367 L26.9908047,115.174268 L27.1104132,114.386879 L30.3724648,114.886977 L30.2528563,115.674367 Z M24.8813446,114.876337 L21.619293,114.472002 L21.7171546,113.673972 L24.9792062,114.078307 L24.8813446,114.876337 Z M19.444592,114.227273 L16.1825404,113.918701 L16.2586549,113.120671 L19.5207065,113.429242 L19.444592,114.227273 Z M14.0078393,113.748455 L10.7457877,113.535646 L10.7457877,112.737616 L14.0078393,112.950424 L14.0078393,113.748455 Z M8.57108664,113.418602 L5.30903505,113.301558 L5.30903505,112.503528 L8.57108664,112.620572 L8.57108664,113.418602 Z M3.13433398,113.248356 L0.0897524931,113.248356 L0.0897524931,112.450326 L0.176740536,112.450326 L3.23219553,112.450326 L3.13433398,113.248356 Z" id="Shape" fill-rule="nonzero"></path>
                        <path d="M110.956013,101.490712 C77.2740109,82.4672898 39.0662957,72.4595569 0.176740536,72.474338 L0.176740536,71.6762903 C39.2111769,71.6609378 77.5613857,81.7053651 111.369206,100.799086 L110.956013,101.490712 Z" id="Path"></path>
                        <polygon id="Path" points="112.369568 102.288742 110.966886 101.490712 111.380079 100.799086 112.793635 101.607757"></polygon>
                        <path d="M0.176740536,506.836799 L0.176740536,506.038768 L1.133609,506.038768 L1.133609,506.836799 L0.176740536,506.836799 Z M3.31918357,506.836799 L3.31918357,506.038768 L6.58123517,505.974926 L6.58123517,506.772956 L3.31918357,506.836799 Z M8.75593623,506.698473 L8.75593623,505.900443 L12.0179878,505.762118 L12.0179878,506.560148 L8.75593623,506.698473 Z M14.1926889,506.432463 L14.1926889,505.634433 L17.4547405,505.410985 L17.5199815,506.209015 L14.1926889,506.432463 Z M19.6294416,506.038768 L19.553327,505.240738 L22.8153786,504.942807 L22.9023667,505.740837 L19.6294416,506.038768 Z M25.0661942,505.506748 L24.9792062,504.708718 L28.2412578,504.336304 L28.3391193,505.123694 L25.0661942,505.506748 Z M30.5029469,504.847044 L30.3942118,504.059654 L33.6562634,503.602117 L33.775872,504.389506 L30.5029469,504.847044 Z M35.9396995,504.059654 L35.8092175,503.272264 L39.0712691,502.740244 L39.2126246,503.527634 L35.9396995,504.059654 Z M41.3112112,503.144579 L41.1589821,502.35719 L44.3557927,501.750687 L44.5188952,502.527436 L41.3112112,503.144579 Z M46.6609758,502.080539 L46.4869997,501.30379 L49.6729368,500.622804 L49.8577863,501.399554 L46.6609758,502.080539 Z M51.9781199,500.910095 L51.7932703,500.133346 L54.9574603,499.377877 L55.1531834,500.154627 L51.9781199,500.910095 Z M57.2626435,499.611966 L57.0560469,498.845857 L60.1984899,498.005266 L60.41596,498.771374 L57.2626435,499.611966 Z M62.416685,498.196793 L62.1883414,497.430684 L65.3090374,496.515609 L65.5482545,497.281718 L62.416685,498.196793 Z M67.5924735,496.643294 L67.3423829,495.887826 L70.4413319,494.898268 L70.7022961,495.653737 L67.5924735,496.643294 Z M72.8008826,495.004672 L72.5399184,494.249204 L75.606247,493.185164 L75.8780846,493.940632 L72.8008826,495.004672 Z M77.9331771,493.206445 L77.650466,492.461616 L80.6406799,491.280532 L80.9342646,492.02536 L77.9331771,493.206445 Z M83.0111041,491.280532 L82.7066459,490.535704 L85.7077334,489.333339 L86.023065,490.067526 L83.0111041,491.280532 Z M88.02379,489.237575 L87.6975849,488.503387 L90.6660518,487.226539 L91.0031305,487.950086 L88.02379,489.237575 Z M92.9821085,487.109495 L92.6450298,486.385947 L95.5808762,485.034616 L95.9288284,485.758164 L92.9821085,487.109495 Z M97.8860594,484.832449 L97.5272337,484.119542 L100.43046,482.704369 L100.800159,483.417275 L97.8860594,484.832449 Z M102.735643,482.438358 L102.35507,481.725452 L105.225675,480.235795 L105.617122,480.938062 L102.735643,482.438358 Z M107.519985,479.927224 L107.128539,479.224957 L109.95565,477.671459 L110.35797,478.363085 L107.519985,479.927224 Z M112.24996,477.299045 L111.836767,476.607419 L114.631258,474.979437 L115.055324,475.660423 L112.24996,477.299045 Z M116.90382,474.564462 L116.479753,473.883476 L119.23075,472.191652 L119.665691,472.861997 L116.90382,474.564462 Z M121.492439,471.712834 L121.046626,471.042489 L123.754129,469.286823 L124.210816,469.946527 L121.492439,471.712834 Z M126.015818,468.744162 L125.55913,468.084457 L128.223139,466.264949 L128.6907,466.914013 L126.015818,468.744162 Z M130.463081,465.679726 L129.984647,465.030662 L132.605162,463.147311 L133.09447,463.785735 L130.463081,465.679726 Z M134.812483,462.487606 L134.312302,461.849182 L136.889323,459.901989 L137.389504,460.529772 L134.812483,462.487606 Z M139.096645,459.210363 L138.58559,458.582579 L141.108243,456.571543 L141.630171,457.188686 L139.096645,459.210363 Z M143.304691,455.826715 L142.782763,455.220212 C143.616398,454.510852 144.442785,453.822773 145.261922,453.155974 L145.794724,453.762477 C144.975586,454.415088 144.1492,455.081887 143.315565,455.762873 L143.304691,455.826715 Z M147.42575,452.347304 L146.882074,451.751441 L149.306866,449.623361 L149.850541,450.208583 L147.42575,452.347304 Z M151.45982,448.772129 L150.905271,448.186907 L153.275695,446.005625 L153.841118,446.580206 C153.058225,447.275379 152.268084,447.984739 151.470694,448.708286 L151.45982,448.772129 Z M155.406903,445.10119 L154.84148,444.526609 C155.617124,443.817249 156.389142,443.068874 157.157537,442.281484 L157.733833,442.845425 C156.965438,443.568973 156.189795,444.285426 155.406903,444.994786 L155.406903,445.10119 Z M159.256123,441.334488 L158.668954,440.781188 L160.930643,438.482861 L161.517812,439.036162 C160.778414,439.759709 160.028142,440.50099 159.266997,441.260006 L159.256123,441.334488 Z M163.018356,437.472023 L162.420313,436.929362 C163.145214,436.149066 163.870114,435.365223 164.595015,434.577834 L165.203931,435.109854 C164.493528,435.854682 163.768628,436.620791 163.02923,437.40818 L163.018356,437.472023 Z M166.682728,433.524434 L166.073811,432.992414 C166.798712,432.19793 167.523612,431.396354 168.248512,430.587683 L168.868302,431.109063 C168.136153,431.853891 167.407628,432.637734 166.682728,433.460591 L166.682728,433.524434 Z M170.249237,429.491722 L169.629447,428.980983 C170.354348,428.165218 171.046628,427.345908 171.706287,426.52305 L172.33695,427.023149 C171.648295,427.803445 170.952391,428.601475 170.249237,429.417239 L170.249237,429.491722 Z M173.707012,425.373886 L173.065475,424.778024 C173.746881,423.948073 174.421039,423.114575 175.087947,422.27753 L175.729484,422.766988 C175.069825,423.625314 174.399292,424.469452 173.717885,425.299404 L173.707012,425.373886 Z M177.066925,421.117726 L176.414515,420.628268 C177.074174,419.784129 177.726584,418.932897 178.371746,418.074571 L179.024156,418.553389 C178.386244,419.397528 177.737458,420.245213 177.077799,421.096445 L177.066925,421.117726 Z M180.328977,416.861565 L179.665693,416.393388 C180.303605,415.535062 180.934268,414.669643 181.557683,413.79713 L182.220967,414.254667 C181.597552,415.098806 180.966889,415.950038 180.328977,416.808363 L180.328977,416.861565 Z M183.47142,412.499001 L182.85163,412.009542 C183.467795,411.13703 184.076712,410.257423 184.678379,409.370723 L185.352536,409.81762 C184.721873,410.697226 184.094834,411.576833 183.47142,412.456439 L183.47142,412.499001 Z M186.505128,408.061954 L185.820097,407.625697 C186.414515,406.731903 187.001684,405.83811 187.581605,404.944316 L188.266636,405.369932 C187.693964,406.249539 187.11042,407.132692 186.516001,408.019392 L186.505128,408.061954 Z M189.430101,403.550423 L188.734196,403.135448 C189.306868,402.234561 189.87229,401.32658 190.430463,400.411505 L191.126367,400.81584 C190.575443,401.70254 190.013645,402.596334 189.440974,403.497221 L189.430101,403.550423 Z M192.246339,398.975051 L191.539561,398.570716 C192.090485,397.655641 192.63416,396.733473 193.170586,395.804211 L193.877364,396.197906 C193.340938,397.098794 192.797263,398.010321 192.246339,398.932489 L192.246339,398.975051 Z M194.942968,394.325196 L194.225317,393.942141 C194.754494,393.012879 195.272798,392.076524 195.780228,391.133075 L196.497879,391.505489 C195.990449,392.406377 195.472145,393.335638 194.942968,394.293274 L194.942968,394.325196 Z M197.519989,389.611498 L196.802337,389.239084 C197.302519,388.295635 197.799075,387.348639 198.292007,386.398097 L199.020532,386.75987 C198.5276,387.696226 198.031043,388.636128 197.530862,389.579577 L197.519989,389.611498 Z M199.977401,384.844598 L199.248876,384.493465 C199.72731,383.535829 200.198495,382.574646 200.662432,381.609916 L201.40183,381.950409 C200.937894,382.893858 200.466709,383.847947 199.988274,384.812677 L199.977401,384.844598 Z M202.315204,380.013856 L201.575806,379.684003 C202.032493,378.71218 202.478307,377.740357 202.913247,376.768533 L203.663519,377.087746 C203.228579,378.045382 202.78639,379.010111 202.336951,379.981935 L202.315204,380.013856 Z M204.489906,375.129912 L203.739634,374.8107 C204.167325,373.831783 204.591392,372.849319 205.011834,371.863308 L205.762106,372.17188 C205.385157,373.13661 204.997336,374.11198 204.598641,375.09799 L204.489906,375.129912 Z M206.588492,370.192765 L205.827347,369.894834 C206.233291,368.908824 206.631986,367.91572 207.023432,366.915522 L207.784578,367.202813 C207.436625,368.174636 207.056053,369.1571 206.64286,370.150204 L206.588492,370.192765 Z M208.621838,365.191777 L207.860692,364.915126 C208.23764,363.914929 208.600091,362.911184 208.948043,361.903893 L209.720062,362.169903 C209.36486,363.163007 208.998786,364.170298 208.621838,365.191777 Z M210.470333,360.148227 L209.698315,359.892857 C210.053516,358.885566 210.415966,357.874728 210.785665,356.860343 L211.557684,357.105072 C211.187985,358.10527 210.82191,359.112561 210.45946,360.126946 L210.470333,360.148227 Z M212.188347,355.062115 L211.416328,354.817386 C211.742534,353.803001 212.065114,352.785069 212.38407,351.76359 L213.166963,351.997679 C212.840758,352.990783 212.521801,354.005168 212.210094,355.040834 L212.188347,355.062115 Z M213.775879,349.944082 L212.992987,349.720633 C213.297445,348.699155 213.591029,347.677676 213.873741,346.656198 L214.656633,346.869006 C214.366673,347.883391 214.069464,348.901323 213.765006,349.922801 L213.775879,349.944082 Z M215.222055,344.804768 L214.428289,344.6026 C214.703752,343.574028 214.971965,342.545456 215.232929,341.516884 L216.026695,341.708411 C215.765731,342.72989 215.497517,343.754915 215.222055,344.783487 L215.222055,344.804768 Z M216.559496,339.654814 L215.765731,339.473927 C216.012197,338.438261 216.255038,337.402596 216.494255,336.36693 L217.288021,336.537176 C217.041555,337.551561 216.798714,338.590774 216.559496,339.654814 Z M217.755582,334.451658 L216.961816,334.292052 C217.186535,333.256386 217.404005,332.213627 217.614226,331.163774 L218.418866,331.312739 C218.186898,332.334218 217.958554,333.366337 217.733835,334.409096 L217.755582,334.451658 Z M218.842933,329.227221 L218.038293,329.078255 C218.234016,328.035496 218.42249,326.98919 218.603715,325.939337 L219.408355,326.077662 C219.190885,327.09914 218.966166,328.131259 218.734197,329.174019 L218.842933,329.227221 Z M219.767181,323.970862 L218.962541,323.843178 C219.136517,322.793325 219.29962,321.729285 219.451849,320.651057 L220.256488,320.768102 C220.068014,321.817955 219.886789,322.867807 219.712813,323.91766 L219.767181,323.970862 Z M220.560946,318.650662 L219.756307,318.544258 C219.901287,317.494405 220.039018,316.430365 220.1695,315.352137 L220.97414,315.447901 C220.807413,316.526128 220.651559,317.593715 220.506579,318.650662 L220.560946,318.650662 Z M221.22423,313.330461 L220.408717,313.245338 C220.524701,312.188391 220.637061,311.124351 220.745796,310.053218 L221.561309,310.1277 C221.423578,311.220115 221.293096,312.294795 221.169863,313.351742 L221.22423,313.330461 Z M221.757032,308.01026 L220.941519,307.946418 C221.035756,306.889472 221.11912,305.825431 221.19161,304.754298 L222.007123,304.8075 C221.898388,305.907008 221.796901,306.988782 221.702664,308.052822 L221.757032,308.01026 Z M222.159352,302.69006 L221.343839,302.69006 C221.40908,301.633113 221.467072,300.569073 221.517815,299.497939 L222.333328,299.497939 C222.24634,300.590354 222.170225,301.668581 222.104984,302.732621 L222.159352,302.69006 Z M222.420316,297.369859 L221.604803,297.369859 C221.641048,296.312913 221.673668,295.248873 221.702664,294.177739 L222.518177,294.177739 C222.460185,295.26306 222.409442,296.33774 222.365948,297.40178 L222.420316,297.369859 Z M222.550798,292.049659 L221.735285,292.049659 C221.735285,291.113303 221.735285,290.176948 221.735285,289.240593 L221.735285,288.857538 L222.550798,288.857538 L222.550798,289.240593 C222.529051,290.21951 222.514553,291.166505 222.507304,292.08158 L222.550798,292.049659 Z M221.735285,286.729458 C221.735285,285.665418 221.713538,284.601378 221.670044,283.537338 L222.485557,283.537338 C222.485557,284.601378 222.507304,285.665418 222.550798,286.729458 L221.735285,286.729458 Z M221.604803,281.409257 C221.568558,280.345217 221.521439,279.281177 221.463447,278.217137 L222.27896,278.217137 C222.329703,279.281177 222.376822,280.345217 222.420316,281.409257 L221.604803,281.409257 Z M221.343839,276.089057 C221.278598,275.025017 221.206108,273.960976 221.126369,272.896936 L221.941882,272.833094 C222.021621,273.897134 222.094111,274.961174 222.159352,276.025214 L221.343839,276.089057 Z M220.952393,270.768856 C220.858156,269.71191 220.760294,268.647869 220.658808,267.576736 L221.474321,267.502253 C221.583056,268.559199 221.680917,269.62324 221.767905,270.694373 L220.952393,270.768856 Z M220.430464,265.448655 C220.31448,264.391709 220.187623,263.327669 220.049892,262.256535 L220.854531,262.160771 C220.985013,263.217718 221.111871,264.281758 221.235104,265.352892 L220.430464,265.448655 Z M219.778054,260.128455 C219.633074,259.071508 219.480845,258.007468 219.321367,256.936334 L220.126006,256.81929 C220.285484,257.876237 220.437713,258.940277 220.582693,260.01141 L219.778054,260.128455 Z M218.995162,254.872097 C218.821186,253.822244 218.643585,252.758203 218.46236,251.679976 L219.266999,251.541651 C219.455473,252.591504 219.633074,253.655544 219.799801,254.733771 L218.995162,254.872097 Z M218.081787,249.637019 C217.886064,248.587166 217.683092,247.544407 217.472871,246.508741 L218.27751,246.349135 C218.487731,247.391894 218.694328,248.455935 218.8973,249.541256 L218.081787,249.637019 Z M216.994437,244.423222 C216.769718,243.380463 216.537749,242.341251 216.298532,241.305585 L217.092298,241.135339 C217.331515,242.171004 217.563483,243.213764 217.788203,244.263616 L216.994437,244.423222 Z M215.820098,239.251987 C215.573632,238.223415 215.316292,237.194843 215.048079,236.166271 L215.841845,235.974744 C216.102809,237.003316 216.360149,238.035435 216.613864,239.071101 L215.820098,239.251987 Z M214.515277,234.112674 C214.239815,233.091195 213.957104,232.069717 213.667144,231.048238 L214.450036,230.83543 C214.739997,231.856909 215.022708,232.881934 215.29817,233.910506 L214.515277,234.112674 Z M213.079975,229.005281 C212.782766,227.983803 212.474683,226.969418 212.155727,225.962126 L212.938619,225.728037 C213.257575,226.742422 213.565658,227.760354 213.862867,228.781833 L213.079975,229.005281 Z M211.51419,223.94045 C211.187985,222.926065 210.854531,221.918774 210.513827,220.918576 L211.285846,220.663206 C211.62655,221.670498 211.960004,222.681336 212.286209,223.695721 L211.51419,223.94045 Z M209.828797,218.90754 C209.480844,217.907343 209.118394,216.907145 208.741446,215.906947 L209.513465,215.640937 C209.883164,216.641135 210.245614,217.644879 210.600816,218.652171 L209.828797,218.90754 Z M208.012921,214.098079 C207.635973,213.104975 207.251776,212.115417 206.86033,211.129407 L207.621475,210.842116 C208.012921,211.83522 208.397118,212.831871 208.774067,213.832069 L208.012921,214.098079 Z M206.077437,209.150292 C205.678742,208.164282 205.269173,207.181818 204.848731,206.202901 L205.599003,205.89433 C206.012196,206.873246 206.421765,207.859257 206.827709,208.852361 L206.077437,209.150292 Z M204.011471,204.245067 C203.58378,203.26615 203.152464,202.294327 202.717524,201.329597 L203.467796,201.010385 C203.909985,201.982209 204.344925,202.957579 204.772617,203.936496 L204.011471,204.245067 Z M201.83677,199.393044 C201.387332,198.428315 200.930645,197.467132 200.466709,196.509496 L201.206107,196.169003 C201.670043,197.126639 202.130355,198.091369 202.587042,199.063192 L201.83677,199.393044 Z M199.531587,194.594223 C199.060402,193.636587 198.578343,192.686045 198.085411,191.742596 L198.813936,191.380822 C199.306868,192.331365 199.788927,193.285454 200.260112,194.24309 L199.531587,194.594223 Z M197.106795,189.859245 C196.606614,188.915796 196.102808,187.975894 195.595378,187.039538 L196.31303,186.667124 C196.827709,187.60348 197.335139,188.546929 197.83532,189.497471 L197.106795,189.859245 Z M194.562395,185.177468 C194.040467,184.248207 193.51129,183.322492 192.974863,182.400324 L193.681641,182.006629 C194.218067,182.928797 194.747245,183.858058 195.269173,184.794414 L194.562395,185.177468 Z M191.898386,180.559534 C191.354711,179.64446 190.803787,178.729385 190.245614,177.814311 L190.941518,177.399335 C191.499691,178.314409 192.05424,179.229484 192.605164,180.144558 L191.898386,180.559534 Z M189.114769,176.005442 C188.549347,175.097461 187.976675,174.196574 187.396755,173.30278 L188.081786,172.877164 C188.661706,173.778052 189.238002,174.682486 189.810673,175.590467 L189.114769,176.005442 Z M186.20067,171.536474 C185.6135,170.64268 185.015457,169.75598 184.406541,168.876373 L185.080699,168.429477 C185.682366,169.316177 186.280409,170.206424 186.874827,171.100217 L186.20067,171.536474 Z M183.199582,167.120707 C182.590666,166.241101 181.970876,165.368588 181.340213,164.503169 L182.003497,164.045631 C182.63416,164.918144 183.25395,165.794204 183.862866,166.67381 L183.199582,167.120707 Z M180.08976,162.779424 C179.451847,161.914004 178.81031,161.055679 178.165149,160.204446 L178.817559,159.725628 C179.462721,160.583954 180.104258,161.445827 180.74217,162.311246 L180.08976,162.779424 Z M176.827708,158.523263 C176.175298,157.679125 175.512014,156.838533 174.837857,156.001488 L175.479393,155.512029 C176.153551,156.349074 176.816834,157.193213 177.469245,158.044445 L176.827708,158.523263 Z M173.500415,154.330945 C172.826258,153.500994 172.144852,152.674589 171.456196,151.851731 L172.08686,151.340992 C172.81176,152.16385 173.496791,152.993801 174.141952,153.830846 L173.500415,154.330945 Z M170.064388,150.22375 C169.339487,149.407986 168.636334,148.599315 167.954928,147.797739 L168.574717,147.276359 C169.299618,148.085029 170.006396,148.897247 170.695051,149.713011 L170.064388,150.22375 Z M166.541372,146.127196 C165.816472,145.332712 165.091571,144.541776 164.366671,143.754386 L164.975587,143.222366 C165.700488,144.009756 166.425388,144.804239 167.150288,145.605816 L166.541372,146.127196 Z M162.909621,142.179607 C162.184721,141.399311 161.45982,140.622561 160.73492,139.849359 L161.322089,139.296058 C162.04699,140.06926 162.793637,140.84601 163.562031,141.626306 L162.909621,142.179607 Z M159.180009,138.327781 C158.455108,137.561673 157.693963,136.806204 156.896573,136.061376 L157.472869,135.497435 C158.241263,136.249356 159.006033,137.008372 159.767178,137.774481 L159.180009,138.327781 Z M155.352535,134.561079 C154.576892,133.851719 153.797624,133.113985 153.014731,132.347876 L153.580154,131.773294 C154.370295,132.482654 155.153187,133.223936 155.928831,133.997138 L155.352535,134.561079 Z M151.4272,130.890141 L149.035028,128.762061 L149.578704,128.176839 C150.383343,128.886199 151.184358,129.595559 151.981748,130.304919 L151.4272,130.890141 Z M147.414876,127.304326 L144.968337,125.176245 L145.501139,124.569743 C146.327526,125.279103 147.146663,125.988463 147.958551,126.697823 L147.414876,127.304326 Z M143.315565,123.814274 L140.814658,121.771317 L141.336587,121.154174 L143.848366,123.207771 L143.315565,123.814274 Z M139.151012,120.462548 L136.595738,118.483433 L137.09592,117.855649 L139.651193,119.845404 L139.151012,120.462548 Z M134.877724,117.174664 L132.278957,115.248751 L132.768264,114.610327 L135.377906,116.53624 L134.877724,117.174664 Z M130.528322,113.982543 L127.875187,112.120473 L128.342748,111.471409 L130.995883,113.333479 L130.528322,113.982543 Z M126.102806,110.886187 L123.406176,109.087959 L123.862864,108.428254 L126.570366,110.226482 L126.102806,110.886187 Z M121.601174,107.917515 L118.861051,106.183129 L119.295991,105.512784 L122.046988,107.247169 L121.601174,107.917515 Z M117.023429,105.055247 L114.239811,103.384704 L114.663878,102.703718 L117.458369,104.374261 L117.023429,105.055247 Z" id="Shape" fill-rule="nonzero"></path>
                        <path d="M106.030315,269.428165 L102.442058,269.428165 C92.7299167,221.678542 49.9295575,187.272734 0.176740536,187.220425 L0.176740536,188.018455 C49.6613285,188.053385 92.2017956,222.352196 101.70266,269.875062 L101.767901,270.194274 L106.030315,270.194274 C112.147202,270.20014 117.104423,275.051089 117.110417,281.036843 L117.110417,297.486904 C117.104423,303.472658 112.147202,308.323607 106.030315,308.329473 L101.767901,308.329473 L101.70266,308.648685 C92.1972444,356.167321 49.6579613,390.460719 0.176740536,390.494651 L0.176740536,391.292681 C49.9194978,391.243413 92.7163332,356.853797 102.442058,309.116862 L106.030315,309.116862 C112.585255,309.081969 117.890272,303.89068 117.92593,297.476263 L117.92593,281.036843 C117.872497,274.634896 112.572634,269.462873 106.030315,269.428165 Z" id="Path"></path>
                        <path d="M293.511294,255.925496 C293.221167,252.816721 290.89214,250.257052 287.770083,249.615738 C267.719339,244.029528 245.4504,241.294945 217.744709,240.997013 C216.461635,235.442724 214.961091,229.952277 213.286571,224.632076 C237.066927,210.852756 254.953844,197.584176 269.502594,182.889782 C271.881849,180.806711 272.592219,177.447583 271.253228,174.61155 C266.856094,164.329446 261.800756,154.328906 256.117309,144.669461 C250.421185,135.022302 244.109286,125.7361 237.219157,116.866092 C235.38044,114.312894 232.053837,113.233555 229.020534,114.205992 C208.806687,119.1857 188.103533,127.708661 163.931731,141.030443 C160.028142,136.901968 155.917957,132.879896 151.699037,129.059992 C165.312666,105.40638 174.022344,85.1470559 179.111144,65.3665499 C180.104885,62.3982742 179.0019,59.142986 176.392768,57.3436874 C167.32923,50.5904951 157.839581,44.4032412 147.980298,38.8187488 C138.109635,33.2564184 127.889961,28.3094333 117.382254,24.0073102 C114.471104,22.7090963 111.035084,23.4212776 108.911794,25.7629764 C93.8954829,40.0104737 80.3362218,57.5032934 66.2550324,80.773851 C60.8182797,79.1245888 55.1966775,77.6562134 49.5315812,76.4112865 C49.227123,49.299544 46.4326322,27.4654406 40.7240419,7.88710229 C40.0728689,4.82779342 37.4561518,2.54352999 34.2760532,2.25833002 C22.9677344,0.830921053 11.5787207,0.102382801 0.176740536,0.0770477579 L0.176740536,2.20512801 C11.4761663,2.21980747 22.763441,2.93057325 33.9715951,4.33320827 C36.280299,4.52156438 38.1738234,6.20010224 38.5928348,8.42976275 C44.3014251,28.0613031 47.074169,49.9273277 47.2916391,77.2412378 L47.2916391,78.0924699 L48.1397725,78.2733567 C54.3159235,79.6140472 60.4485805,81.2101074 66.3528939,83.0296161 L67.1792803,83.2849857 L67.6142205,82.5614384 C81.7497775,59.0993536 95.3199121,41.5320511 110.347096,27.2313518 C112.271707,25.4118432 114.17457,25.0075079 116.447133,25.9545036 C126.887687,30.2245553 137.042032,35.1360224 146.849454,40.6595382 C156.629539,46.1990573 166.042926,52.3365599 175.03358,59.0355112 C176.938894,60.3270333 177.723171,62.7079165 176.947317,64.8451703 C171.858516,84.646957 163.083597,104.948843 149.328613,128.74078 L148.904546,129.474968 L149.53521,130.049549 C154.145576,134.199306 158.636334,138.56187 162.866127,143.094681 L163.453296,143.722465 L164.203568,143.307489 C188.516726,129.847382 209.274248,121.260578 229.509841,116.28087 C232.097736,115.642446 233.946231,116.217028 235.446775,118.153581 C242.29253,126.951462 248.564492,136.163049 254.225319,145.733501 C259.864106,155.31735 264.879502,165.239718 269.24163,175.441501 C270.234082,177.491296 269.699337,179.937639 267.936809,181.410766 C253.366312,196.115801 235.414155,209.395022 211.394581,223.227543 L210.655183,223.653159 L210.916147,224.46183 C212.764643,230.239568 214.406542,236.230114 215.776604,242.284502 L215.961454,243.114453 L216.831334,243.114453 C244.743622,243.359182 267.088676,246.072485 287.150293,251.626774 C289.4288,252.036803 291.14411,253.889734 291.336593,256.148945 C292.771678,267.116659 293.498022,278.162065 293.511294,289.219312 C293.497185,300.276531 292.770845,311.321887 291.336593,322.289679 C291.148788,324.552971 289.432435,326.411391 287.150293,326.82249 C267.077802,332.408701 244.743622,335.122003 216.831334,335.334811 L215.961454,335.334811 L215.776604,336.164762 C214.395669,342.240431 212.764643,348.241618 210.916147,353.987434 L210.655183,354.796105 L211.394581,355.221721 C235.381534,369.054243 253.333691,382.344104 267.936809,397.038498 C269.702755,398.50963 270.238036,400.95842 269.24163,403.007763 C264.879423,413.209511 259.86403,423.131874 254.225319,432.715763 C248.56222,442.284832 242.290352,451.496283 235.446775,460.295683 C233.946231,462.232236 232.086862,462.806818 229.509841,462.168394 C209.263374,457.188686 188.516726,448.591242 164.214442,435.141775 L163.46417,434.726799 L162.877001,435.343942 C158.647207,439.855473 154.178196,444.239318 149.546083,448.389074 L148.91542,448.963656 L149.339487,449.697844 C163.094471,473.489781 171.86939,493.791667 176.95819,513.604094 C177.734045,515.741348 176.949767,518.122231 175.044453,519.413753 C166.053682,526.112543 156.640306,532.250039 146.860327,537.789726 C137.075164,543.331624 126.942709,548.264366 116.523247,552.558603 C114.429951,553.541458 111.922448,553.016592 110.423211,551.281755 C95.3960266,537.012977 81.8150185,519.445674 67.6903351,495.951668 L67.2553949,495.228121 L66.4290085,495.48349 C60.5464421,497.292359 54.4681526,498.888419 48.215887,500.23975 L47.3677536,500.420637 L47.3677536,501.261228 C47.117663,528.575138 44.3449192,550.441163 38.6689494,570.072703 C38.2499379,572.302364 36.3564135,573.980902 34.0477096,574.169258 C22.8395555,575.571893 11.5522809,576.282659 0.252855073,576.297338 L0.252855073,578.425418 C11.6428142,578.41664 23.0209014,577.705873 34.3195472,576.297338 C37.4964278,576.013431 40.1121722,573.734334 40.7675359,570.679206 C46.4652527,551.058306 49.2706171,529.266764 49.5750752,502.155022 C55.2619185,500.899455 60.8835207,499.431079 66.2985264,497.792458 C80.3688423,521.063015 93.9389769,538.555835 108.955288,552.803332 C111.087689,555.125294 114.51587,555.819516 117.414875,554.516437 C127.896203,550.206506 138.090283,545.25605 147.936804,539.694358 C157.788486,534.112755 167.270858,527.929063 176.327527,521.18006 C178.936659,519.380761 180.039644,516.125473 179.045903,513.157197 C173.957103,493.366051 165.236551,473.106727 151.633796,449.463755 C155.852716,445.643851 159.962901,441.621779 163.877363,437.493304 C188.038292,450.804446 208.730573,459.338047 228.966166,464.317755 C229.744201,464.514759 230.543845,464.618377 231.347464,464.626327 C233.668263,464.636311 235.844777,463.525602 237.164789,461.657655 C244.064146,452.787177 250.38687,443.501078 256.095562,433.854286 C261.779213,424.194948 266.834557,414.194395 271.231481,403.912197 C272.574177,401.076582 271.863334,397.715214 269.480847,395.633965 C254.921223,380.950211 237.04518,367.67099 213.264824,353.891671 C214.939344,348.57147 216.439888,343.091663 217.722962,337.526734 C245.428653,337.228802 267.741086,334.494219 287.748336,328.908009 C290.868534,328.263556 293.196019,325.705581 293.489547,322.598251 C294.929542,311.541879 295.655882,300.407676 295.664248,289.261873 C295.664019,278.11649 294.944938,266.982232 293.511294,255.925496 Z" id="Path"></path>
                        <path d="M96.178919,301.90267 L106.030315,301.90267 C107.227105,301.90267 108.374879,301.437439 109.221138,300.609322 C110.067396,299.781205 110.54282,298.658038 110.54282,297.486904 L110.54282,281.036843 C110.54282,279.865709 110.067396,278.742542 109.221138,277.914425 C108.374879,277.086308 107.227105,276.621077 106.030315,276.621077 L96.178919,276.621077 C89.6937006,229.583854 48.6799331,194.476943 0.176740536,194.445258 L0.176740536,196.573338 C47.9494525,196.599836 88.2301848,231.42399 94.1455735,277.812802 L94.2651821,278.749157 L106.030315,278.749157 C107.321448,278.749157 108.368118,279.773389 108.368118,281.036843 L108.368118,297.486904 C108.368118,298.750358 107.321448,299.77459 106.030315,299.77459 L94.2651821,299.77459 L94.1455735,300.710945 C88.2251555,347.095536 47.9457949,381.913942 0.176740536,381.939768 L0.176740536,384.067849 C48.676319,384.036885 89.6887432,348.935669 96.178919,301.90267 Z" id="Path"></path>
                        <path d="M0.176740536,107.045002 L0.176740536,108.109042 C102.257208,108.109042 185.298169,189.369786 185.298169,289.261873 C185.298169,389.153961 102.257208,470.414705 0.176740536,470.414705 L0.176740536,471.478745 C102.855251,471.478745 186.385519,389.739183 186.385519,289.261873 C186.385519,188.784564 102.855251,107.045002 0.176740536,107.045002 Z" id="Path"></path>
                        <path d="M0.176740536,9.16395044 C13.6803643,9.16370814 27.1674547,10.088134 40.5391923,11.9304548 L40.6479273,11.1430651 C27.240246,9.29468997 13.7168196,8.36670848 0.176740536,8.36592035 L0.176740536,9.16395044 Z" id="Path"></path>
                    </g>
                </g>
            </g>
        </g>
    </g>
</svg>