<svg xmlns="http://www.w3.org/2000/svg" viewBox="0 0 280 34.8"><defs><style>.cls-1{fill:#e6ebf1;}</style></defs><title>logo-samat-white</title><g id="Capa_2" data-name="Capa 2"><g id="Capa_1-2" data-name="Capa 1"><path class="cls-1" d="M49.93,0V6.7H11.43S7.66,7,7.66,10.51a3.68,3.68,0,0,0,3.89,3.92h26.4s12.91-1,12.91,10.16c0,6.81-7.31,10.21-10.11,10.21H.91V28.74H36.79s6,.63,6-4-4.09-4.13-4.09-4.13h-26S0,21.24,0,11.24,9.29,0,13.25,0Z"/><path class="cls-1" d="M97.74,8.2S94.19,0,87.77,0h-14s-8.36.35-11,8.43S54.44,34.8,54.44,34.8h8.48l2.62-8.17H89.75l-1.92-6H67.46l3.36-10.47a4.85,4.85,0,0,1,4.93-3.58h10s3.09-.46,4.7,4.15,7.1,24.06,7.1,24.06h9.16Z"/><path class="cls-1" d="M192.23,8.2S195.8,0,202.27,0h14.08s8.43.35,11.08,8.43,8.43,26.37,8.43,26.37h-8.54l-2.64-8.17h-24.4l1.94-6h20.52l-3.38-10.47a4.88,4.88,0,0,0-5-3.58h-10s-3.12-.46-4.73,4.15-7.16,24.06-7.16,24.06h-9.23Z"/><polygon class="cls-1" points="232.91 0.01 232.91 6.78 252.15 6.78 252.15 34.8 260.76 34.8 260.61 6.87 280 6.87 280 0.01 232.91 0.01"/><path class="cls-1" d="M144.07,26.58s-4.15.42-4.15-5.12V11.62S141.37,0,128.83,0h-5.69S112-.69,112,11.72V34.8h8.14V13.24s-.42-7.08,4.58-7.08h3s4.62-.54,4.62,6.54V22.84s-.85,9.41,9.93,9.41h5.46c10.77,0,9.93-9.41,9.93-9.41V12.7c0-7.08,4.62-6.54,4.62-6.54h3c5,0,4.58,7.08,4.58,7.08V34.8h8.14V11.72C177.93-.69,166.76,0,166.76,0h-5.69C148.52,0,150,11.62,150,11.62v9.83c0,5.54-4.15,5.12-4.15,5.12Z"/></g></g></svg>