<?xml version="1.0" encoding="UTF-8"?>
<svg width="280px" height="35px" viewBox="0 0 280 35" version="1.1" xmlns="http://www.w3.org/2000/svg" xmlns:xlink="http://www.w3.org/1999/xlink">
    <!-- Generator: Sketch 52.6 (67491) - http://www.bohemiancoding.com/sketch -->
    <title>logo-samat</title>
    <desc>Created with Sketch.</desc>
    <g id="Page-1" stroke="none" stroke-width="1" fill="none" fill-rule="evenodd">
        <g id="logo-samat" transform="translate(0.000000, -1.000000)" fill="#492775">
            <path d="M49.87,1 L49.87,7.69 L11.41,7.69 C11.41,7.69 7.65,8 7.65,11.49 C7.57950693,12.54262 7.9641659,13.5748726 8.70631256,14.3246702 C9.44845923,15.0744679 10.4767123,15.4696935 11.53,15.41 L37.89,15.41 C37.89,15.41 50.79,14.41 50.79,25.55 C50.79,32.35 43.49,35.75 40.69,35.75 L0.91,35.75 L0.91,29.71 L36.75,29.71 C36.75,29.71 42.75,30.34 42.75,25.71 C42.75,21.08 38.67,21.59 38.67,21.59 L12.72,21.59 C12.72,21.59 0,22.21 0,12.22 C0,2.23 9.28,1 13.24,1 L49.87,1 Z" id="Path"></path>
            <path d="M97.61,9.19 C97.61,9.19 94.07,1 87.66,1 L73.66,1 C73.66,1 65.31,1.35 62.66,9.41 C60.01,17.47 54.31,35.75 54.31,35.75 L62.78,35.75 L65.4,27.6 L89.64,27.6 L87.72,21.6 L67.38,21.6 L70.74,11.14 C71.3383032,8.94237852 73.3851881,7.45713886 75.66,7.57 L85.66,7.57 C85.66,7.57 88.75,7.11 90.35,11.72 C91.95,16.33 97.44,35.72 97.44,35.72 L106.59,35.72 L97.61,9.19 Z" id="Path"></path>
            <path d="M192,9.19 C192,9.19 195.55,1 202,1 L216.06,1 C216.06,1 224.47,1.35 227.13,9.41 C229.79,17.47 235.54,35.75 235.54,35.75 L227,35.75 L224.36,27.6 L200,27.6 L201.94,21.6 L222.43,21.6 L219.05,11.14 C218.438875,8.91621734 216.351727,7.42599316 214.05,7.57 L204.05,7.57 C204.05,7.57 200.94,7.11 199.32,11.72 C197.7,16.33 192.17,35.72 192.17,35.72 L183,35.72 L192,9.19 Z" id="Path"></path>
            <polygon id="Path" points="232.97 1.01 232.97 7.77 252.18 7.77 252.18 35.76 260.79 35.76 260.63 7.86 280 7.86 280 1.01"></polygon>
            <path d="M143.88,27.54 C143.88,27.54 139.73,27.95 139.73,22.42 L139.73,12.61 C139.73,12.61 141.19,1 128.67,1 L123,1 C123,1 111.84,0.31 111.84,12.7 L111.84,35.76 L119.97,35.76 L119.97,14.85 C119.97,14.85 119.55,7.78 124.54,7.78 L127.54,7.78 C127.54,7.78 132.15,7.24 132.15,14.31 L132.15,23.81 C132.15,23.81 131.3,33.2 142.06,33.2 L147.51,33.2 C158.27,33.2 157.42,23.81 157.42,23.81 L157.42,14.31 C157.42,7.24 162.03,7.78 162.03,7.78 L165.03,7.78 C170.03,7.78 169.6,14.85 169.6,14.85 L169.6,35.76 L177.73,35.76 L177.73,12.71 C177.7,0.32 166.54,1 166.54,1 L160.85,1 C148.32,1 149.79,12.6 149.79,12.6 L149.79,22.42 C149.79,27.95 145.64,27.54 145.64,27.54 L143.88,27.54 Z" id="Path"></path>
        </g>
    </g>
</svg>