<?xml version="1.0" encoding="UTF-8"?>
<svg width="244px" height="52px" viewBox="0 0 244 52" version="1.1" xmlns="http://www.w3.org/2000/svg" xmlns:xlink="http://www.w3.org/1999/xlink">
    <!-- Generator: Sketch 52.6 (67491) - http://www.bohemiancoding.com/sketch -->
    <title>Path 2</title>
    <desc>Created with Sketch.</desc>
    <g id="Desktop" stroke="none" stroke-width="1" fill="none" fill-rule="evenodd">
        <g id="Metodo-Samat" transform="translate(-253.000000, -637.000000)" fill="#83CACB" fill-rule="nonzero">
            <g id="Steps" transform="translate(120.000000, 592.000000)">
                <path id="Path-2" d="M376.924306,96.2982247 L344.643825,93.2616964 L359.98524,68.6519224 L376.924306,96.2982247 Z M136.586195,86.5272148 L133.413805,82.66251 C134.462351,81.8017981 135.518308,80.9559938 136.581673,80.1251011 L139.660212,84.0649737 C138.628473,84.8711545 137.603801,85.6919002 136.586195,86.5272148 Z M142.795556,81.6760657 L139.814234,77.6621254 C140.903852,76.8528203 142.001027,76.058751 143.105756,75.2799217 L145.986753,79.3664672 C144.9158,80.1214846 143.852069,80.8913494 142.795556,81.6760657 Z M149.23377,77.1376075 L146.456091,72.9801445 C147.583504,72.2268988 148.718562,71.4891075 149.861263,70.7667741 L152.532887,74.99317 C151.425855,75.6929566 150.32615,76.4077678 149.23377,77.1376075 Z M155.903205,72.9226243 L153.340831,68.6291124 C154.506004,67.933736 155.6789,67.254016 156.859515,66.5899555 L159.310722,70.9478889 C158.167453,71.5909433 157.031615,72.2491873 155.903205,72.9226243 Z M162.755441,69.0681978 L160.417107,64.6486736 C161.614523,64.0151307 162.819662,63.3972923 164.032521,62.7951611 L166.255884,67.2736269 C165.081606,67.8566048 163.914793,68.4547942 162.755441,69.0681978 Z M169.816229,65.5633056 L167.709843,61.0286459 C168.938628,60.4578655 170.175122,59.9028104 171.419321,59.3634825 L173.407901,63.9510251 C172.203188,64.4732371 171.005965,65.0106632 169.816229,65.5633056 Z M177.057441,62.4248205 L175.188116,57.7874048 C176.442757,57.2816637 177.705027,56.7915305 178.97492,56.3170063 L180.725085,61.000693 C179.495086,61.4603102 178.272539,61.935019 177.057441,62.4248205 Z M184.40294,59.6790241 L182.771353,54.9527228 C184.048992,54.5116635 185.334154,54.086039 186.626833,53.6758495 L188.139109,58.4416675 C186.88633,58.839196 185.640942,59.2516481 184.40294,59.6790241 Z M191.913944,57.2955012 L190.520839,52.4934954 C191.81841,52.1170586 193.123369,51.7558215 194.435713,51.4097837 L195.710537,56.2445354 C194.437707,56.5801543 193.172177,56.9304764 191.913944,57.2955012 Z M199.543316,55.2836009 L198.386128,50.4193523 C199.698685,50.1070993 201.018454,49.8097157 202.345432,49.5272005 L203.386603,54.4175956 C202.098345,54.6918672 200.817251,54.980536 199.543316,55.2836009 Z M207.267095,53.6390623 L206.340962,48.725583 C207.666079,48.4758143 208.99822,48.2405558 210.337384,48.0198059 L211.150617,52.9532278 C209.849099,53.1677721 208.554593,53.3963841 207.267095,53.6390623 Z M215.059401,52.3541821 L214.357455,47.4037001 C215.690986,47.2146141 217.03133,47.0396182 218.378484,46.8787106 L218.971482,51.8434214 C217.660628,51.9999933 216.356602,52.1702475 215.059401,52.3541821 Z M222.91404,51.4157781 L222.428315,46.4394269 C223.767278,46.3087353 225.112828,46.1916832 226.464966,46.0882686 L226.846264,51.0737085 C225.528896,51.1744639 224.218155,51.2884878 222.91404,51.4157781 Z M230.729375,50.8162272 L230.448657,45.8241137 C231.790831,45.7486402 233.13937,45.6863498 234.49427,45.6372405 L234.67538,50.6339593 C233.353625,50.6818673 232.03829,50.7426239 230.729375,50.8162272 Z M238.62812,50.5293152 L238.544158,45.5300202 C239.733909,45.5100386 240.928474,45.5000324 242.127919,45.5000001 C242.286976,45.5 242.364708,45.5001075 242.595903,45.5006454 L242.581943,50.5006259 C242.357814,50.5001044 242.282345,50.5 242.127987,50.5000001 C240.956497,50.5000316 239.789874,50.5098038 238.62812,50.5293152 Z M246.522221,50.559708 L246.657863,45.5615482 C248.007206,45.5981673 249.359618,45.651126 250.715095,45.7204222 L250.459813,50.713901 C249.14414,50.6466398 247.831611,50.5952428 246.522221,50.559708 Z M254.396888,50.9618297 L254.769682,45.9757467 C256.114546,46.076298 257.46239,46.1927857 258.813213,46.3252073 L258.3254,51.3013542 C257.012815,51.172681 255.703312,51.059507 254.396888,50.9618297 Z M262.251301,51.7313198 L262.851711,46.7674999 C264.188539,46.9291988 265.528251,47.1063645 266.870845,47.2989943 L266.160738,52.2483122 C264.854588,52.0609112 263.551443,51.8885813 262.251301,51.7313198 Z M270.056869,52.850538 L270.873815,47.9177295 C272.20171,48.1376485 273.532395,48.3725639 274.865869,48.6224732 L273.944843,53.5369123 C272.645927,53.2934796 271.349936,53.064689 270.056869,52.850538 Z M277.823748,54.3055772 L278.846043,49.4112016 C280.16144,49.6859504 281.479524,49.9751661 282.800296,50.2788461 L281.679899,55.1517006 C280.391685,54.8555063 279.106301,54.573466 277.823748,54.3055772 Z M285.53569,56.0783984 L286.751597,51.2284942 C288.054875,51.5552358 289.360748,51.8959453 290.669213,52.2506205 L289.361107,57.0764738 C288.083228,56.7300894 286.80809,56.3973984 285.53569,56.0783984 Z M293.182662,58.1507975 L294.580332,53.3501186 C295.868581,53.7251796 297.159324,54.1136698 298.452559,54.5155872 L296.968649,59.2903134 C295.704014,58.8972847 294.442019,58.5174468 293.182662,58.1507975 Z M300.713438,60.490146 L302.280231,55.7419716 C303.553971,56.1622778 304.830112,56.5955093 306.108654,57.0416642 L304.461292,61.7624905 C303.209464,61.3256574 301.960179,60.9015432 300.713438,60.490146 Z M308.192089,63.0992649 L309.917317,58.4063356 C311.174915,58.8686573 312.434819,59.3433886 313.69703,59.8305279 L311.896748,64.4951806 C310.659417,64.0176437 309.424531,63.5523391 308.192089,63.0992649 Z M315.587925,65.9531174 L317.46078,61.317126 C318.702907,61.8189224 319.947254,62.3326474 321.19382,62.8582997 L319.251081,67.4654421 C318.027678,66.9495579 316.806626,66.4454501 315.587925,65.9531174 Z M322.897338,69.0348114 L324.907572,64.4567159 C326.133412,64.9949803 327.361386,65.5446969 328.591494,66.1058647 L326.516266,70.6548678 C325.3077,70.1035272 324.10139,69.5635088 322.897338,69.0348114 Z M330.123809,72.3310652 L332.261895,67.8112656 C333.471394,68.3834178 334.682944,68.9665643 335.896546,69.5607042 L333.698036,74.0514229 C332.504461,73.4670872 331.313051,72.8936349 330.123809,72.3310652 Z M337.256898,75.8227328 L339.513786,71.3610673 C340.707233,71.96476 341.902652,72.5790129 343.100045,73.2038252 L340.786967,77.6366198 C339.608197,77.0215254 338.431507,76.4168966 337.256898,75.8227328 Z M344.300315,79.4976022 L346.66767,75.0935551 C347.845141,75.7264937 349.02451,76.3695769 350.205778,77.022804 L347.786152,81.398351 C346.622209,80.7547041 345.460263,80.1211214 344.300315,79.4976022 Z"></path>
            </g>
        </g>
    </g>
</svg>