<?xml version="1.0" encoding="UTF-8"?>
<svg width="229px" height="49px" viewBox="0 0 229 49" version="1.1" xmlns="http://www.w3.org/2000/svg" xmlns:xlink="http://www.w3.org/1999/xlink">
    <!-- Generator: Sketch 52.6 (67491) - http://www.bohemiancoding.com/sketch -->
    <title>Path 2 Copy</title>
    <desc>Created with Sketch.</desc>
    <g id="Desktop" stroke="none" stroke-width="1" fill="none" fill-rule="evenodd">
        <g id="Metodo-Samat" transform="translate(-675.000000, -798.000000)" fill="#83CACB" fill-rule="nonzero">
            <g id="Steps" transform="translate(120.000000, 592.000000)">
                <path id="Path-2-Copy" d="M783.924952,252.297186 L751.637138,249.339651 L766.918292,224.692413 L783.924952,252.297186 Z M558.585847,243.241927 L555.414153,239.376651 C556.464222,238.515006 557.522211,237.669277 558.588118,236.839469 L561.659594,240.784851 C560.627482,241.588349 559.6029,242.407373 558.585847,243.241927 Z M564.796217,238.40788 L561.828699,234.383723 C562.922643,233.57702 564.024674,232.786608 565.134788,232.01249 L567.99475,236.113784 C566.920867,236.862637 565.854691,237.627334 564.796217,238.40788 Z M571.253513,233.905543 L568.504505,229.729067 C569.639454,228.98203 570.782596,228.251549 571.933928,227.537628 L574.568879,231.786985 C573.455923,232.477109 572.350802,233.183294 571.253513,233.905543 Z M577.950363,229.753652 L575.432701,225.43377 C576.604831,224.750643 577.785197,224.08421 578.973793,223.434475 L581.372064,227.821763 C580.223587,228.449567 579.083022,229.093529 577.950363,229.753652 Z M584.841569,225.986648 L582.564801,221.535095 C583.772703,220.917308 584.988856,220.316308 586.213255,219.732099 L588.366415,224.244737 C587.183497,224.809154 586.008551,225.38979 584.841569,225.986648 Z M591.951733,222.594528 L589.92418,218.024077 C591.162807,217.474594 592.409632,216.941847 593.664648,216.425838 L595.565997,221.050216 C594.353278,221.548835 593.148525,222.063605 591.951733,222.594528 Z M599.242774,219.597229 L597.469098,214.922395 C598.735243,214.442007 600.009492,213.978224 601.291842,213.531046 L602.938201,218.252222 C601.698467,218.68454 600.46666,219.132875 599.242774,219.597229 Z M606.63581,217.017797 L605.115581,212.25451 C606.40472,211.843074 607.701827,211.448013 609.006897,211.069325 L610.400256,215.871257 C609.137599,216.237638 607.882786,216.619818 606.63581,217.017797 Z M614.206205,214.82097 L612.939312,209.984134 C614.246291,209.641802 615.561051,209.315502 616.883585,209.005232 L618.025593,213.873067 C616.74476,214.173554 615.471632,214.489522 614.206205,214.82097 Z M621.877369,213.02093 L620.859071,208.125721 C622.180473,207.850844 623.509446,207.591602 624.845985,207.347993 L625.742557,212.266952 C624.446621,212.50316 623.158227,212.754487 621.877369,213.02093 Z M629.643823,211.605125 L628.867531,206.665755 C630.19936,206.45644 631.538525,206.262301 632.885024,206.083339 L633.543779,211.039753 C632.23645,211.21351 630.936466,211.401968 629.643823,211.605125 Z M637.473188,210.564186 L636.930039,205.593775 C638.268833,205.447476 639.614714,205.315858 640.967681,205.198917 L641.398239,210.180345 C640.082763,210.294045 638.774414,210.421993 637.473188,210.564186 Z M645.351133,209.882947 L645.031005,204.893206 C646.373426,204.80708 647.722673,204.735105 649.078745,204.677279 L649.291764,209.672739 C647.971333,209.729046 646.65779,209.799116 645.351133,209.882947 Z M653.171759,209.547339 L653.061287,204.54856 C654.404826,204.518868 655.754932,204.502793 657.111604,204.500333 L657.120669,209.500325 C655.797722,209.502724 654.481419,209.518396 653.171759,209.547339 Z M661.060509,209.542448 L661.178734,204.543846 C662.52922,204.575787 663.88298,204.625179 665.240009,204.692019 L664.994034,209.685965 C663.679503,209.621218 662.36833,209.57338 661.060509,209.542448 Z M668.925206,209.929258 L669.296469,204.94306 C670.641169,205.043184 671.989038,205.160275 673.340071,205.294329 L672.846378,210.269896 C671.536038,210.13988 670.228982,210.026334 668.925206,209.929258 Z M676.776254,210.708002 L677.389968,205.74581 C678.727097,205.911183 680.067289,206.093015 681.410541,206.291303 L680.680365,211.2377 C679.375794,211.045122 678.074424,210.868557 676.776254,210.708002 Z M684.568667,211.85748 L685.411998,206.929114 C686.739398,207.156255 688.069754,207.399319 689.403064,207.658301 L688.449681,212.566566 C687.1529,212.314679 685.859229,212.078318 684.568667,211.85748 Z M692.323314,213.363155 L693.383609,208.476871 C694.697946,208.762074 696.015124,209.062608 697.335143,209.378469 L696.171564,214.241193 C694.885809,213.933531 693.603059,213.640852 692.323314,213.363155 Z M700.012194,215.202432 L701.275926,210.36477 C702.575372,210.704221 703.877546,211.058397 705.182448,211.427294 L703.82225,216.238725 C702.549337,215.87887 701.279319,215.533441 700.012194,215.202432 Z M707.6,217.34647 L709.053015,212.562252 C710.337277,212.952295 711.624159,213.356479 712.913661,213.7748 L711.370788,218.530801 C710.111074,218.122143 708.854145,217.727367 707.6,217.34647 Z M715.126218,219.787367 L716.755844,215.060389 C718.02384,215.497531 719.29435,215.948232 720.567374,216.412489 L718.854293,221.109866 C717.608928,220.655696 716.366236,220.214863 715.126218,219.787367 Z M722.561669,222.498273 L724.355149,217.831001 C725.606072,218.31169 726.859404,218.805366 728.115147,219.312027 L726.244312,223.948833 C725.014201,223.452515 723.786653,222.968995 722.561669,222.498273 Z M729.914955,225.464624 L731.860455,220.858647 C733.094368,221.379835 734.330593,221.913464 735.56913,222.459533 L733.551993,227.034592 C732.337191,226.498987 731.124845,225.975665 729.914955,225.464624 Z M737.169174,228.66237 L739.255296,224.118353 C740.471696,224.676792 741.690314,225.247143 742.911148,225.829402 L740.758739,230.342398 C739.559866,229.770613 738.363344,229.210604 737.169174,228.66237 Z M744.339812,232.081907 L746.556253,227.600012 C747.755488,228.193072 748.95685,228.797541 750.16034,229.413419 L747.882555,233.864452 C746.699389,233.258975 745.518474,232.664794 744.339812,232.081907 Z M751.410043,235.699561 L753.746982,231.279299 C754.92899,231.904212 756.113038,232.540053 757.299127,233.186821 L754.90541,237.576595 C753.738132,236.940085 752.573009,236.314407 751.410043,235.699561 Z"></path>
            </g>
        </g>
    </g>
</svg>