<?xml version="1.0" encoding="UTF-8"?><!DOCTYPE svg PUBLIC "-//W3C//DTD SVG 1.1//EN" "http://www.w3.org/Graphics/SVG/1.1/DTD/svg11.dtd"><svg xmlns="http://www.w3.org/2000/svg" xmlns:xlink="http://www.w3.org/1999/xlink" class="hide-svg"><defs><style>.cls-1{fill:#492775}</style></defs><symbol id="bell"><path d="M14.65 8.512c-2.28-4.907-3.466-6.771-7.191-6.693-1.327.027-1.009-.962-2.021-.587-1.01.375-.143.924-1.177 1.773-2.902 2.383-2.635 4.587-1.289 9.84.567 2.213-1.367 2.321-.602 4.465.559 1.564 4.679 2.219 9.025.607s7.086-4.814 6.527-6.378c-.765-2.145-2.311-.961-3.272-3.027zm-3.726 8.083c-3.882 1.44-7.072.594-7.207.217-.232-.65 1.253-2.816 5.691-4.463s6.915-1.036 7.174-.311c.153.429-1.775 3.116-5.658 4.557zm-1.248-3.494c-2.029.753-3.439 1.614-4.353 2.389.643.584 1.847.726 3.046.281 1.527-.565 2.466-1.866 2.095-2.904l-.016-.036c-.251.082-.508.171-.772.27z"/></symbol><symbol id="briefcase"><path d="M9 10h2v2h9s-.149-4.459-.2-5.854C19.75 4.82 19.275 4 17.8 4h-3.208l-1.197-2.256C13.064 1.121 12.951 1 12.216 1H7.783c-.735 0-.847.121-1.179.744-.165.311-.7 1.318-1.196 2.256H2.199c-1.476 0-1.945.82-2 2.146S0 12 0 12h9v-2zM7.649 2.916c.23-.432.308-.516.817-.516h3.067c.509 0 .588.084.816.516L12.924 4h-5.85l.575-1.084zM11 15H9v-2H.5s.124 1.797.199 3.322C.73 16.955.917 18 2.499 18H17.5c1.582 0 1.765-1.047 1.8-1.678.087-1.568.2-3.322.2-3.322H11v2z"/></symbol><symbol id="camera"><path d="M10 8a3 3 0 1 0 0 6 3 3 0 0 0 0-6zm8-3h-2.4a.888.888 0 0 1-.789-.57l-.621-1.861A.89.89 0 0 0 13.4 2H6.6c-.33 0-.686.256-.789.568L5.189 4.43A.889.889 0 0 1 4.4 5H2C.9 5 0 5.9 0 7v9c0 1.1.9 2 2 2h16c1.1 0 2-.9 2-2V7c0-1.1-.9-2-2-2zm-8 11c-2.762 0-5-2.238-5-5a5 5 0 1 1 10 0 5 5 0 0 1-5 5zm7.5-7.8a.7.7 0 1 1 0-1.4.7.7 0 0 1 0 1.4z"/></symbol><symbol id="chat"><path d="M5.8 12.2V6H2C.9 6 0 6.9 0 8v6c0 1.1.9 2 2 2h1v3l3-3h5c1.1 0 2-.9 2-2v-1.82a.943.943 0 0 1-.2.021l-7-.001zM18 1H9c-1.1 0-2 .9-2 2v8h7l3 3v-3h1c1.1 0 2-.899 2-2V3c0-1.1-.9-2-2-2z"/></symbol><symbol id="check"><path d="M8.294 16.998c-.435 0-.847-.203-1.111-.553L3.61 11.724a1.392 1.392 0 0 1 .27-1.951 1.392 1.392 0 0 1 1.953.27l2.351 3.104 5.911-9.492c.407-.652 1.267-.852 1.921-.445s.854 1.266.446 1.92L9.478 16.34a1.39 1.39 0 0 1-1.12.656c-.022.002-.042.002-.064.002z"/></symbol><symbol id="chevron-down"><path d="M4.516 7.548c.436-.446 1.043-.481 1.576 0L10 11.295l3.908-3.747c.533-.481 1.141-.446 1.574 0 .436.445.408 1.197 0 1.615-.406.418-4.695 4.502-4.695 4.502a1.095 1.095 0 0 1-1.576 0S4.924 9.581 4.516 9.163s-.436-1.17 0-1.615z"/></symbol><symbol id="chevron-left"><path d="M12.452 4.516c.446.436.481 1.043 0 1.576L8.705 10l3.747 3.908c.481.533.446 1.141 0 1.574-.445.436-1.197.408-1.615 0-.418-.406-4.502-4.695-4.502-4.695a1.095 1.095 0 0 1 0-1.576s4.084-4.287 4.502-4.695 1.17-.436 1.615 0z"/></symbol><symbol id="chevron-right"><path d="M9.163 4.516c.418.408 4.502 4.695 4.502 4.695a1.095 1.095 0 0 1 0 1.576s-4.084 4.289-4.502 4.695c-.418.408-1.17.436-1.615 0-.446-.434-.481-1.041 0-1.574L11.295 10 7.548 6.092c-.481-.533-.446-1.141 0-1.576s1.197-.409 1.615 0z"/></symbol><symbol id="chevron-small-down"><path d="M13.418 7.859c.271-.268.709-.268.978 0s.272.701 0 .969l-3.908 3.83a.697.697 0 0 1-.979 0l-3.908-3.83c-.27-.267-.27-.701 0-.969s.709-.268.978 0L10 11l3.418-3.141z"/></symbol><symbol id="chevron-small-left"><path d="M12.141 13.418c.268.271.268.709 0 .978s-.701.272-.969 0l-3.83-3.908a.697.697 0 0 1 0-.979l3.83-3.908c.267-.27.701-.27.969 0s.268.709 0 .978L9 10l3.141 3.418z"/></symbol><symbol id="chevron-small-right"><path d="M11 10L7.859 6.58a.695.695 0 0 1 0-.978.68.68 0 0 1 .969 0l3.83 3.908a.697.697 0 0 1 0 .979l-3.83 3.908c-.267.272-.701.27-.969 0s-.268-.707 0-.978L11 10z"/></symbol><symbol id="chevron-small-up"><path d="M6.582 12.141c-.271.268-.709.268-.978 0s-.272-.701 0-.969l3.908-3.83a.697.697 0 0 1 .979 0l3.908 3.83c.27.267.27.701 0 .969s-.709.268-.979 0L10 9l-3.418 3.141z"/></symbol><symbol id="chevron-thin-down"><path d="M17.418 6.109c.272-.268.709-.268.979 0s.271.701 0 .969l-7.908 7.83a.697.697 0 0 1-.979 0l-7.908-7.83c-.27-.268-.27-.701 0-.969s.709-.268.979 0L10 13.25l7.418-7.141z"/></symbol><symbol id="chevron-thin-left"><path d="M13.891 17.418c.268.272.268.709 0 .979s-.701.271-.969 0l-7.83-7.908a.697.697 0 0 1 0-.979l7.83-7.908c.268-.27.701-.27.969 0s.268.709 0 .979L6.75 10l7.141 7.418z"/></symbol><symbol id="chevron-thin-right"><path d="M13.25 10L6.109 2.58a.697.697 0 0 1 0-.979.68.68 0 0 1 .969 0l7.83 7.908a.697.697 0 0 1 0 .979l-7.83 7.908c-.268.271-.701.27-.969 0s-.268-.707 0-.979L13.25 10z"/></symbol><symbol id="chevron-thin-up"><path d="M2.582 13.891c-.272.268-.709.268-.979 0s-.271-.701 0-.969l7.908-7.83a.697.697 0 0 1 .979 0l7.908 7.83c.27.268.27.701 0 .969s-.709.268-.978 0L10 6.75l-7.418 7.141z"/></symbol><symbol id="chevron-up"><path d="M15.484 12.452c-.436.446-1.043.481-1.576 0L10 8.705l-3.908 3.747c-.533.481-1.141.446-1.574 0-.436-.445-.408-1.197 0-1.615.406-.418 4.695-4.502 4.695-4.502a1.095 1.095 0 0 1 1.576 0s4.287 4.084 4.695 4.502.436 1.17 0 1.615z"/></symbol><symbol id="cloud"><path d="M20 11.32c0 2.584-2.144 4.68-4.787 4.68H3.617C1.619 16 0 14.416 0 12.463c0-1.951 1.619-3.535 3.617-3.535.146 0 .288.012.429.027a5.076 5.076 0 0 1-.057-.756C3.989 5.328 6.37 3 9.309 3c2.407 0 4.439 1.562 5.096 3.707a5 5 0 0 1 .809-.066C17.856 6.641 20 8.734 20 11.32z"/></symbol><symbol id="cog"><path d="M16.783 10c0-1.049.646-1.875 1.617-2.443a8.932 8.932 0 0 0-.692-1.672c-1.089.285-1.97-.141-2.711-.883-.741-.74-.968-1.621-.683-2.711a8.732 8.732 0 0 0-1.672-.691c-.568.97-1.595 1.615-2.642 1.615-1.048 0-2.074-.645-2.643-1.615a8.697 8.697 0 0 0-1.671.691c.285 1.09.059 1.971-.684 2.711-.74.742-1.621 1.168-2.711.883A8.797 8.797 0 0 0 1.6 7.557c.97.568 1.615 1.394 1.615 2.443 0 1.047-.645 2.074-1.615 2.643a8.89 8.89 0 0 0 .691 1.672c1.09-.285 1.971-.059 2.711.682s.969 1.623.684 2.711a8.841 8.841 0 0 0 1.672.693c.568-.973 1.595-1.617 2.643-1.617 1.047 0 2.074.645 2.643 1.617a8.963 8.963 0 0 0 1.672-.693c-.285-1.088-.059-1.969.683-2.711.741-.74 1.622-1.166 2.711-.883a8.811 8.811 0 0 0 .692-1.672c-.973-.569-1.619-1.395-1.619-2.442zM10 13.652a3.652 3.652 0 1 1 0-7.306 3.654 3.654 0 0 1 0 7.306z"/></symbol><symbol id="compass"><path d="M5.454 14.548s4.568-.627 6.518-2.576 2.576-6.518 2.576-6.518-4.569.627-6.518 2.576-2.576 6.518-2.576 6.518zm3.563-5.533c.818-.818 2.385-1.4 3.729-1.762-.361 1.342-.945 2.92-1.76 3.732a1.39 1.39 0 0 1-1.969 0 1.391 1.391 0 0 1 0-1.97zM10.001.4C4.698.4.4 4.698.4 10a9.6 9.6 0 0 0 9.601 9.601c5.301 0 9.6-4.298 9.6-9.601S15.302.4 10.001.4zM10 17.6a7.6 7.6 0 1 1 0-15.2 7.6 7.6 0 1 1 0 15.2z"/></symbol><symbol id="dot"><path d="M10 .4C4.7.4.4 4.7.4 10s4.3 9.6 9.6 9.6 9.6-4.3 9.6-9.6S15.3.4 10 .4z"/></symbol><symbol id="dots-three-horizontal"><path d="M10.001 7.8a2.2 2.2 0 1 0 0 4.402A2.2 2.2 0 0 0 10 7.8zm-7 0a2.2 2.2 0 1 0 0 4.402A2.2 2.2 0 0 0 3 7.8zm14 0a2.2 2.2 0 1 0 0 4.402A2.2 2.2 0 0 0 17 7.8z"/></symbol><symbol id="dots-three-vertical"><path d="M10.001 7.8a2.2 2.2 0 1 0 0 4.402A2.2 2.2 0 0 0 10 7.8zm0-2.6A2.2 2.2 0 1 0 9.999.8a2.2 2.2 0 0 0 .002 4.4zm0 9.6a2.2 2.2 0 1 0 0 4.402 2.2 2.2 0 0 0 0-4.402z"/></symbol><symbol id="download"><path d="M15 7h-3V1H8v6H5l5 5 5-5zm4.338 6.532c-.21-.224-1.611-1.723-2.011-2.114A1.503 1.503 0 0 0 16.285 11h-1.757l3.064 2.994h-3.544a.274.274 0 0 0-.24.133L12.992 16H7.008l-.816-1.873a.276.276 0 0 0-.24-.133H2.408L5.471 11H3.715c-.397 0-.776.159-1.042.418-.4.392-1.801 1.891-2.011 2.114-.489.521-.758.936-.63 1.449l.561 3.074c.128.514.691.936 1.252.936h16.312c.561 0 1.124-.422 1.252-.936l.561-3.074c.126-.513-.142-.928-.632-1.449z"/></symbol><symbol id="eye"><path d="M10 4.4C3.439 4.4 0 9.232 0 10c0 .766 3.439 5.6 10 5.6s10-4.834 10-5.6c0-.768-3.44-5.6-10-5.6zm0 9.907c-2.455 0-4.445-1.928-4.445-4.307S7.545 5.691 10 5.691s4.444 1.93 4.444 4.309-1.989 4.307-4.444 4.307zM10 10c-.407-.447.663-2.154 0-2.154-1.228 0-2.223.965-2.223 2.154s.995 2.154 2.223 2.154c1.227 0 2.223-.965 2.223-2.154 0-.547-1.877.379-2.223 0z"/></symbol><symbol id="facebook-with-circle"><path d="M10 .4C4.698.4.4 4.698.4 10s4.298 9.6 9.6 9.6 9.6-4.298 9.6-9.6S15.302.4 10 .4zm2.274 6.634h-1.443c-.171 0-.361.225-.361.524V8.6h1.805l-.273 1.486H10.47v4.461H8.767v-4.461H7.222V8.6h1.545v-.874c0-1.254.87-2.273 2.064-2.273h1.443v1.581z"/></symbol><symbol id="facebook"><path d="M17 1H3c-1.1 0-2 .9-2 2v14c0 1.101.9 2 2 2h7v-7H8V9.525h2v-2.05c0-2.164 1.212-3.684 3.766-3.684l1.803.002v2.605h-1.197c-.994 0-1.372.746-1.372 1.438v1.69h2.568L15 12h-2v7h4c1.1 0 2-.899 2-2V3c0-1.1-.9-2-2-2z"/></symbol><symbol id="globe"><path d="M10 .4C4.705.4.399 4.707.399 10S4.705 19.6 10 19.6c5.293 0 9.6-4.307 9.6-9.6S15.293.4 10 .4zm8.188 9.6c0 1.873-.636 3.6-1.696 4.98-.3-.234-.619-.867-.319-1.523.303-.66.382-2.188.312-2.783-.066-.594-.375-2.025-1.214-2.039-.838-.012-1.413-.289-1.911-1.283-1.033-2.068 1.939-2.465.906-3.609-.289-.322-1.783 1.322-2.002-.869-.014-.157.135-.392.336-.636 3.244 1.09 5.588 4.157 5.588 7.762zM8.875 1.893c-.196.382-.713.537-1.027.824-.684.619-.978.533-1.346 1.127-.371.594-1.567 1.449-1.567 1.879s.604.936.906.838c.302-.1 1.099-.094 1.567.07.469.166 3.914.332 2.816 3.244-.348.926-1.873.77-2.279 2.303-.061.225-.272 1.186-.285 1.5-.025.486.344 2.318-.125 2.318-.471 0-1.738-1.639-1.738-1.936s-.328-1.338-.328-2.23c0-.891-1.518-.877-1.518-2.062 0-1.068.823-1.6.638-2.113-.181-.51-1.627-.527-2.23-.59a8.213 8.213 0 0 1 6.516-5.172zM7.424 17.77c.492-.26.542-.596.988-.613.51-.023.925-.199 1.5-.326.51-.111 1.423-.629 2.226-.695.678-.055 2.015.035 2.375.689a8.159 8.159 0 0 1-7.089.945z"/></symbol><symbol id="home"><path d="M18.672 11H17v6c0 .445-.194 1-1 1h-4v-6H8v6H4c-.806 0-1-.555-1-1v-6H1.328c-.598 0-.47-.324-.06-.748L9.292 2.22c.195-.202.451-.302.708-.312.257.01.513.109.708.312l8.023 8.031c.411.425.539.749-.059.749z"/></symbol><symbol id="info-with-circle"><path d="M10 .4C4.697.4.399 4.698.399 10A9.6 9.6 0 0 0 10 19.601c5.301 0 9.6-4.298 9.6-9.601S15.301.4 10 .4zm.896 3.466c.936 0 1.211.543 1.211 1.164 0 .775-.62 1.492-1.679 1.492-.886 0-1.308-.445-1.282-1.182 0-.621.519-1.474 1.75-1.474zM8.498 15.75c-.64 0-1.107-.389-.66-2.094l.733-3.025c.127-.484.148-.678 0-.678-.191 0-1.022.334-1.512.664l-.319-.523c1.555-1.299 3.343-2.061 4.108-2.061.64 0 .746.756.427 1.92l-.84 3.18c-.149.562-.085.756.064.756.192 0 .82-.232 1.438-.719l.362.486c-1.513 1.512-3.162 2.094-3.801 2.094z"/></symbol><symbol id="instagram-with-circle"><path d="M13 10a3 3 0 1 1-6 0c0-.171.018-.338.049-.5H6v3.997c0 .278.225.503.503.503h6.995a.503.503 0 0 0 .502-.503V9.5h-1.049c.031.162.049.329.049.5zm-3 2a2 2 0 1 0-.001-4.001A2 2 0 0 0 10 12zm2.4-4.1h1.199a.301.301 0 0 0 .301-.3V6.401a.301.301 0 0 0-.301-.301H12.4a.301.301 0 0 0-.301.301V7.6c.001.165.136.3.301.3zM10 .4C4.698.4.4 4.698.4 10s4.298 9.6 9.6 9.6 9.6-4.298 9.6-9.6S15.302.4 10 .4zm5 13.489C15 14.5 14.5 15 13.889 15H6.111C5.5 15 5 14.5 5 13.889V6.111C5 5.5 5.5 5 6.111 5h7.778C14.5 5 15 5.5 15 6.111v7.778z"/></symbol><symbol id="instagram"><path d="M17 1H3c-1.1 0-2 .9-2 2v14c0 1.101.9 2 2 2h14c1.1 0 2-.899 2-2V3c0-1.1-.9-2-2-2zM9.984 15.523a5.539 5.539 0 0 0 5.538-5.539c0-.338-.043-.664-.103-.984H17v7.216a.69.69 0 0 1-.693.69H3.693a.69.69 0 0 1-.693-.69V9h1.549c-.061.32-.104.646-.104.984a5.54 5.54 0 0 0 5.539 5.539zM6.523 9.984c0-1.912 1.55-3.461 3.462-3.461a3.461 3.461 0 1 1 0 6.923 3.461 3.461 0 0 1-3.462-3.462zM16.307 6h-1.615A.694.694 0 0 1 14 5.308V3.691c0-.382.31-.691.691-.691h1.615c.384 0 .694.309.694.691v1.616c0 .381-.31.693-.693.693z"/></symbol><symbol id="install"><path d="M19.059 10.898l-3.171-7.927A1.543 1.543 0 0 0 14.454 2H12.02l.38 4.065h2.7L10 10.293 4.9 6.065h2.7L7.98 2H5.546c-.632 0-1.2.384-1.434.971L.941 10.898a4.25 4.25 0 0 0-.246 2.272l.59 3.539A1.544 1.544 0 0 0 2.808 18h14.383c.755 0 1.399-.546 1.523-1.291l.59-3.539a4.22 4.22 0 0 0-.245-2.272zm-2.1 4.347a.902.902 0 0 1-.891.755H3.932a.902.902 0 0 1-.891-.755l-.365-2.193A.902.902 0 0 1 3.567 12h12.867c.558 0 .983.501.891 1.052l-.366 2.193z"/></symbol><symbol id="laptop"><path d="M19.754 15.631L18 13V4c0-1.102-.9-2-2-2H4c-1.101 0-2 .898-2 2v9L.246 15.631C0 16 0 16.213 0 16.5v.5c0 .5.5 1 .999 1h18.002c.499 0 .999-.5.999-1v-.5c0-.287 0-.5-.246-.869zM7 16l.6-1h4.8l.6 1H7zm9-4H4V4h12v8z"/></symbol><symbol id="linkedin-with-circle"><path d="M10 .4C4.698.4.4 4.698.4 10s4.298 9.6 9.6 9.6 9.6-4.298 9.6-9.6S15.302.4 10 .4zM7.65 13.979H5.706V7.723H7.65v6.256zm-.984-7.024c-.614 0-1.011-.435-1.011-.973 0-.549.409-.971 1.036-.971s1.011.422 1.023.971c0 .538-.396.973-1.048.973zm8.084 7.024h-1.944v-3.467c0-.807-.282-1.355-.985-1.355-.537 0-.856.371-.997.728-.052.127-.065.307-.065.486v3.607H8.814v-4.26c0-.781-.025-1.434-.051-1.996h1.689l.089.869h.039c.256-.408.883-1.01 1.932-1.01 1.279 0 2.238.857 2.238 2.699v3.699z"/></symbol><symbol id="linkedin"><path d="M5 3c0 1.062-.71 1.976-2.001 1.976C1.784 4.976 1 4.114 1 3.052 1 1.962 1.76 1 3 1s1.976.91 2 2zM1 19V6h4v13H1zM7 10.444c0-1.545-.051-2.836-.102-3.951h3.594l.178 1.723h.076c.506-.811 1.746-2 3.822-2C17.1 6.216 19 7.911 19 11.558V19h-4v-6.861c0-1.594-.607-2.81-2-2.81-1.062 0-1.594.86-1.873 1.569-.102.254-.127.608-.127.963V19H7v-8.556z"/></symbol><symbol id="location-pin"><path d="M10 2.009c-2.762 0-5 2.229-5 4.99 0 4.774 5 11 5 11s5-6.227 5-11c0-2.76-2.238-4.99-5-4.99zm0 7.751a2.7 2.7 0 1 1 0-5.4 2.7 2.7 0 0 1 0 5.4z"/></symbol><symbol id="logo-samat" viewBox="0 0 280 34.76"><g id="Capa_2" data-name="Capa 2"><g id="Capa_1-2" data-name="Capa 1"><path class="cls-1" d="M49.87 0v6.69H11.41s-3.76.31-3.76 3.8a3.68 3.68 0 0 0 3.88 3.92h26.36s12.9-1 12.9 10.14c0 6.8-7.3 10.2-10.1 10.2H.91v-6.04h35.84s6 .63 6-4-4.08-4.12-4.08-4.12H12.72S0 21.21 0 11.22 9.28 0 13.24 0zM97.61 8.19S94.07 0 87.66 0h-14s-8.35.35-11 8.41-8.35 26.34-8.35 26.34h8.47l2.62-8.15h24.24l-1.92-6H67.38l3.36-10.46a4.85 4.85 0 0 1 4.92-3.57h10s3.09-.46 4.69 4.15 7.09 24 7.09 24h9.15zM192 8.19S195.55 0 202 0h14.06s8.41.35 11.07 8.41 8.41 26.34 8.41 26.34H227l-2.64-8.15H200l1.94-6h20.49l-3.38-10.46a4.87 4.87 0 0 0-5-3.57h-10s-3.11-.46-4.73 4.15-7.15 24-7.15 24H183zM232.97.01v6.76h19.21v27.99h8.61l-.16-27.9H280V.01h-47.03zM143.88 26.54s-4.15.41-4.15-5.12v-9.81S141.19 0 128.67 0H123s-11.16-.69-11.16 11.7v23.06h8.13V13.85s-.42-7.07 4.57-7.07h3s4.61-.54 4.61 6.53v9.5s-.85 9.39 9.91 9.39h5.45c10.76 0 9.91-9.39 9.91-9.39v-9.5c0-7.07 4.61-6.53 4.61-6.53h3c5 0 4.57 7.07 4.57 7.07v20.91h8.13V11.71C177.7-.68 166.54 0 166.54 0h-5.69c-12.53 0-11.06 11.6-11.06 11.6v9.82c0 5.53-4.15 5.12-4.15 5.12z"/></g></g></symbol><symbol id="mail"><path d="M1.574 5.286l7.5 4.029c.252.135.578.199.906.199.328 0 .654-.064.906-.199l7.5-4.029c.489-.263.951-1.286.054-1.286H1.521c-.897 0-.435 1.023.053 1.286zm17.039 2.203l-7.727 4.027c-.34.178-.578.199-.906.199s-.566-.021-.906-.199-7.133-3.739-7.688-4.028C.996 7.284 1 7.523 1 7.707V15c0 .42.566 1 1 1h16c.434 0 1-.58 1-1V7.708c0-.184.004-.423-.387-.219z"/></symbol><symbol id="menu"><path d="M16.4 9H3.6c-.552 0-.6.447-.6 1s.048 1 .6 1h12.8c.552 0 .6-.447.6-1s-.048-1-.6-1zm0 4H3.6c-.552 0-.6.447-.6 1s.048 1 .6 1h12.8c.552 0 .6-.447.6-1s-.048-1-.6-1zM3.6 7h12.8c.552 0 .6-.447.6-1s-.048-1-.6-1H3.6c-.552 0-.6.447-.6 1s.048 1 .6 1z"/></symbol><symbol id="message"><path d="M18 6v7c0 1.1-.9 2-2 2h-4v3l-4-3H4c-1.101 0-2-.9-2-2V6c0-1.1.899-2 2-2h12c1.1 0 2 .9 2 2z"/></symbol><symbol id="minus"><path d="M16 10c0 .553-.048 1-.601 1H4.601C4.049 11 4 10.553 4 10s.049-1 .601-1H15.4c.552 0 .6.447.6 1z"/></symbol><symbol id="mobile"><path d="M14.004 0H5.996A1.996 1.996 0 0 0 4 1.996v16.007C4 19.106 4.894 20 5.996 20h8.007A1.997 1.997 0 0 0 16 18.004V1.996A1.996 1.996 0 0 0 14.004 0zM10 19c-.69 0-1.25-.447-1.25-1s.56-1 1.25-1 1.25.447 1.25 1-.56 1-1.25 1zm4-3H6V2h8v14z"/></symbol><symbol id="phone"><path d="M11.229 11.229c-1.583 1.582-3.417 3.096-4.142 2.371-1.037-1.037-1.677-1.941-3.965-.102-2.287 1.838-.53 3.064.475 4.068 1.16 1.16 5.484.062 9.758-4.211 4.273-4.274 5.368-8.598 4.207-9.758-1.005-1.006-2.225-2.762-4.063-.475s-.936 2.927.103 3.965c.722.725-.791 2.559-2.373 4.142z"/></symbol><symbol id="plus"><path d="M16 10c0 .553-.048 1-.601 1H11v4.399c0 .552-.447.601-1 .601s-1-.049-1-.601V11H4.601C4.049 11 4 10.553 4 10s.049-1 .601-1H9V4.601C9 4.048 9.447 4 10 4s1 .048 1 .601V9h4.399c.553 0 .601.447.601 1z"/></symbol><symbol id="quote"><path d="M5.315 3.401c-1.61 0-2.916 1.343-2.916 3s1.306 3 2.916 3c2.915 0 .972 5.799-2.916 5.799v1.4c6.939.001 9.658-13.199 2.916-13.199zm8.4 0c-1.609 0-2.915 1.343-2.915 3s1.306 3 2.915 3c2.916 0 .973 5.799-2.915 5.799v1.4c6.938.001 9.657-13.199 2.915-13.199z"/></symbol><symbol id="share"><path d="M15 13.442c-.633 0-1.204.246-1.637.642l-5.938-3.463c.046-.188.075-.384.075-.584s-.029-.395-.075-.583L13.3 6.025A2.48 2.48 0 0 0 15 6.7c1.379 0 2.5-1.121 2.5-2.5S16.379 1.7 15 1.7s-2.5 1.121-2.5 2.5c0 .2.029.396.075.583L6.7 8.212A2.485 2.485 0 0 0 5 7.537c-1.379 0-2.5 1.121-2.5 2.5s1.121 2.5 2.5 2.5a2.48 2.48 0 0 0 1.7-.675l5.938 3.463a2.339 2.339 0 0 0-.067.546A2.428 2.428 0 1 0 15 13.442z"/></symbol><symbol id="shopping-cart"><path d="M13 17a2 2 0 1 0 3.999.001A2 2 0 0 0 13 17zM3 17a2 2 0 1 0 4 0 2 2 0 0 0-4 0zm3.547-4.828L17.615 9.01A.564.564 0 0 0 18 8.5V3H4V1.4c0-.22-.181-.4-.399-.4H.399A.401.401 0 0 0 0 1.4V3h2l1.91 8.957.09.943v1.649c0 .219.18.4.4.4h13.2c.22 0 .4-.182.4-.4V13H6.752c-1.15 0-1.174-.551-.205-.828z"/></symbol><symbol id="skype-with-circle"><path d="M12.164 9.852a3.477 3.477 0 0 0-.841-.395 11.065 11.065 0 0 0-1.087-.293 16.093 16.093 0 0 1-.679-.172 2.031 2.031 0 0 1-.396-.158.89.89 0 0 1-.293-.229.46.46 0 0 1-.098-.295c0-.188.1-.346.305-.484.212-.143.499-.215.851-.215.38 0 .656.064.821.193.17.133.318.322.44.562.106.188.201.318.294.4.099.09.241.137.423.137.201 0 .37-.072.505-.217a.698.698 0 0 0 .202-.488c0-.188-.053-.383-.154-.576s-.262-.379-.477-.553a2.486 2.486 0 0 0-.811-.416 3.77 3.77 0 0 0-1.147-.156c-.55 0-1.035.078-1.443.234-.413.158-.734.388-.954.683a1.67 1.67 0 0 0-.334 1.023c0 .4.107.74.318 1.012.207.268.492.482.844.637.346.15.778.283 1.289.396.374.08.678.158.901.23.214.068.391.168.525.297a.632.632 0 0 1 .189.481c0 .252-.119.457-.363.631-.251.176-.584.264-.99.264-.296 0-.535-.043-.714-.131a1.097 1.097 0 0 1-.412-.326 2.564 2.564 0 0 1-.282-.516 1.163 1.163 0 0 0-.289-.434.63.63 0 0 0-.432-.154.716.716 0 0 0-.514.195.648.648 0 0 0-.205.479c0 .295.106.604.315.912.207.309.479.557.81.74.462.252 1.054.379 1.76.379.588 0 1.104-.094 1.536-.277.435-.186.771-.449.998-.779a1.96 1.96 0 0 0 .344-1.129c0-.348-.067-.648-.2-.891s-.32-.443-.555-.601zM10 .4C4.698.4.4 4.698.4 10s4.298 9.6 9.6 9.6 9.6-4.298 9.6-9.6S15.302.4 10 .4zm2.301 14.975c-.487 0-.946-.125-1.348-.348a4.68 4.68 0 0 1-.9.086c-2.713 0-4.914-2.266-4.914-5.057 0-.35.035-.69.1-1.018a2.967 2.967 0 0 1-.392-1.481c0-1.619 1.276-2.934 2.851-2.934.557 0 1.076.166 1.516.451.272-.049.554-.074.839-.074 2.715 0 4.915 2.264 4.915 5.057 0 .371-.039.734-.113 1.084.189.393.296.834.296 1.303-.001 1.618-1.276 2.931-2.85 2.931z"/></symbol><symbol id="skype"><path d="M18.671 12.037a9.347 9.347 0 0 0 .203-1.938c0-4.986-3.93-9.029-8.777-9.029-.511 0-1.012.047-1.5.133A4.962 4.962 0 0 0 5.89.4C3.079.4.8 2.744.8 5.637c0 .965.256 1.871.699 2.648a9.348 9.348 0 0 0-.178 1.815c0 4.986 3.93 9.029 8.775 9.029.551 0 1.087-.051 1.607-.15a4.956 4.956 0 0 0 2.406.621c2.811 0 5.09-2.344 5.09-5.236a5.328 5.328 0 0 0-.528-2.327zm-4.072 2.379c-.406.59-1.006 1.059-1.783 1.391-.769.33-1.692.496-2.742.496-1.26 0-2.317-.227-3.143-.678a4.161 4.161 0 0 1-1.445-1.318c-.372-.555-.561-1.104-.561-1.633 0-.33.123-.617.365-.852.24-.232.549-.352.916-.352.301 0 .562.094.773.277.202.176.375.438.514.773.156.367.326.676.505.92.172.234.42.432.735.586.318.154.748.232 1.275.232.725 0 1.32-.158 1.768-.473.438-.309.65-.676.65-1.127 0-.357-.111-.637-.34-.857a2.409 2.409 0 0 0-.936-.531 18.034 18.034 0 0 0-1.611-.41c-.91-.201-1.683-.439-2.299-.707-.63-.275-1.137-.658-1.508-1.137-.375-.483-.567-1.092-.567-1.807 0-.682.2-1.297.596-1.828.393-.525.965-.935 1.703-1.217.728-.277 1.596-.418 2.576-.418.783 0 1.473.094 2.047.277.578.186 1.066.436 1.449.744.387.311.674.643.854.986.182.35.275.695.275 1.031 0 .322-.121.615-.361.871-.24.258-.543.387-.9.387-.324 0-.58-.082-.756-.242-.164-.148-.336-.383-.524-.717-.219-.428-.484-.766-.788-1.002-.295-.232-.788-.35-1.466-.35-.629 0-1.141.131-1.519.387-.368.249-.545.532-.545.866 0 .207.058.379.176.525.125.158.301.295.523.41.23.12.467.214.705.282.244.07.654.172 1.215.307.711.156 1.363.332 1.939.521a6.22 6.22 0 0 1 1.502.705c.42.283.754.645.989 1.076.237.434.357.969.357 1.59a3.49 3.49 0 0 1-.613 2.016z"/></symbol><symbol id="squared-minus"><path d="M16 2H4c-1.1 0-2 .9-2 2v12c0 1.1.9 2 2 2h12c1.1 0 2-.9 2-2V4c0-1.1-.9-2-2-2zm-1 9H5V9h10v2z"/></symbol><symbol id="squared-plus"><path d="M16 2H4c-1.1 0-2 .9-2 2v12c0 1.1.9 2 2 2h12c1.1 0 2-.9 2-2V4c0-1.1-.9-2-2-2zm-1 9h-4v4H9v-4H5V9h4V5h2v4h4v2z"/></symbol><symbol id="suitcase"><path d="M18 4h-1v15h1c1.1 0 2-.9 2-2V6c0-1.1-.9-2-2-2zM0 6v11c0 1.1.899 2 2 2h1V4H2C.899 4 0 4.9 0 6zm13.5-4.094C12.819 1.59 11.611 1 9.981 1c-1.633 0-2.8.59-3.481.906V4H4v15h12V4h-2.5V1.906zM12 4H8V2.664c.534-.23 1.078-.465 1.981-.465s1.486.234 2.019.465V4z"/></symbol><symbol id="tablet"><path d="M16 0H4C2.9 0 2 .899 2 2v16c0 1.1.9 2 2 2h12c1.101 0 2-.9 2-2V2c0-1.101-.899-2-2-2zm-6 19c-.69 0-1.25-.447-1.25-1s.56-1 1.25-1c.689 0 1.25.447 1.25 1s-.561 1-1.25 1zm6-3H4V2h12v14z"/></symbol><symbol id="text"><path d="M15.5 11h-11c-.275 0-.5.225-.5.5v1a.5.5 0 0 0 .5.5h11a.5.5 0 0 0 .5-.5v-1a.5.5 0 0 0-.5-.5zm0-4h-11c-.275 0-.5.225-.5.5v1a.5.5 0 0 0 .5.5h11a.5.5 0 0 0 .5-.5v-1a.5.5 0 0 0-.5-.5zm-5 8h-6c-.275 0-.5.225-.5.5v1a.5.5 0 0 0 .5.5h6a.5.5 0 0 0 .5-.5v-1a.5.5 0 0 0-.5-.5zm5-12h-11c-.275 0-.5.225-.5.5v1a.5.5 0 0 0 .5.5h11a.5.5 0 0 0 .5-.5v-1a.5.5 0 0 0-.5-.5z"/></symbol><symbol id="thumbs-down"><path d="M6.352 12.638c.133.356-3.539 3.634-1.397 6.291.501.621 2.201-2.975 4.615-4.602 1.331-.899 4.43-2.811 4.43-3.868V3.617C14 2.346 9.086 1 5.352 1 3.983 1 2 9.576 2 10.939c0 1.367 4.221 1.343 4.352 1.699zM15 12.543c.658 0 3-.4 3-3.123V4.572c0-2.721-2.342-3.021-3-3.021-.657 0 1 .572 1 2.26v6.373c0 1.768-1.657 2.359-1 2.359z"/></symbol><symbol id="thumbs-up"><path d="M13.648 7.362c-.133-.355 3.539-3.634 1.398-6.291-.501-.621-2.201 2.975-4.615 4.603C9.099 6.572 6 8.484 6 9.541v6.842C6 17.654 10.914 19 14.648 19 16.017 19 18 10.424 18 9.062c0-1.368-4.221-1.344-4.352-1.7zM5 7.457c-.658 0-3 .4-3 3.123v4.848c0 2.721 2.342 3.021 3 3.021.657 0-1-.572-1-2.26V9.816c0-1.768 1.657-2.359 1-2.359z"/></symbol><symbol id="trash"><path d="M3.389 7.113L4.49 18.021c.061.461 2.287 1.977 5.51 1.979 3.225-.002 5.451-1.518 5.511-1.979l1.102-10.908C14.929 8.055 12.412 8.5 10 8.5c-2.41 0-4.928-.445-6.611-1.387zm9.779-5.603l-.859-.951C11.977.086 11.617 0 10.916 0H9.085c-.7 0-1.061.086-1.392.559l-.859.951C4.264 1.959 2.4 3.15 2.4 4.029v.17C2.4 5.746 5.803 7 10 7c4.198 0 7.601-1.254 7.601-2.801v-.17c0-.879-1.863-2.07-4.433-2.519zM12.07 4.34L11 3H9L7.932 4.34h-1.7s1.862-2.221 2.111-2.522c.19-.23.384-.318.636-.318h2.043c.253 0 .447.088.637.318.248.301 2.111 2.522 2.111 2.522h-1.7z"/></symbol><symbol id="tree"><path d="M20 10c0-1.361-.758-2.616-2.031-3.622-.002-.001-.004-.001-.005-.003C17.602 2.803 14.177 0 10 0S2.398 2.803 2.036 6.375c-.001.002-.003.002-.005.003C.758 7.384 0 8.639 0 10c0 3.112 3.947 5.669 9 5.97V17c0 1-1.821 1.911-1.821 1.911a.227.227 0 0 0-.109.277S7.375 20 8 20s1.124-.5 2.374-.5 2.439.432 2.439.432a.342.342 0 0 0 .329-.073l.717-.717c.078-.078.058-.173-.046-.212 0 0-1.812-.68-1.812-1.93v-1.121C16.565 15.324 20 12.903 20 10zM2 10c0-1.019.768-1.945 2.022-2.651C4.012 7.233 4 7.117 4 7c0-2.762 2.687-5 6-5s6 2.238 6 5c0 .117-.012.233-.021.349C17.232 8.055 18 8.981 18 10c0 1.864-2.551 3.424-5.999 3.869v-.668a.53.53 0 0 1 .145-.337l1.833-1.726a.534.534 0 0 0 .146-.337V9.95c0-.11-.078-.155-.172-.099l-1.779 1.047c-.096.056-.173.012-.173-.099V7.2c0-.11-.085-.172-.19-.137l-2.621.874a.297.297 0 0 0-.189.263v2.6c0 .11-.079.158-.177.107L6.802 9.843a.289.289 0 0 0-.318.048l-.342.342a.185.185 0 0 0 .009.273l2.7 2.361c.083.073.15.222.15.332v.765C5.056 13.719 2 12.04 2 10z"/></symbol><symbol id="tv"><path d="M18 1H2C.899 1 0 1.9 0 3v11c0 1.1.882 2.178 1.961 2.393l4.372.875S2.57 19 5 19h10c2.43 0-1.334-1.732-1.334-1.732l4.373-.875C19.117 16.178 20 15.1 20 14V3c0-1.1-.9-2-2-2zm0 13H2V3h16v11z"/></symbol><symbol id="twitter-round"><g fill-rule="evenodd"><path d="M19.983 39.965C8.965 39.965 0 31.001 0 19.983 0 8.964 8.965 0 19.983 0c11.019 0 19.983 8.964 19.983 19.983 0 11.018-8.964 19.982-19.983 19.982zm0-38.446c-10.181 0-18.464 8.283-18.464 18.464 0 10.18 8.283 18.463 18.464 18.463s18.464-8.282 18.464-18.463c0-10.181-8.283-18.464-18.464-18.464z" fill-rule="nonzero"/><path d="M28.567 12.444a7.65 7.65 0 0 1-2.472.967 3.837 3.837 0 0 0-2.84-1.26c-2.147 0-3.889 1.787-3.889 3.99 0 .313.033.616.1.909-3.233-.167-6.1-1.753-8.02-4.17a4.061 4.061 0 0 0-.526 2.008c0 1.383.687 2.605 1.731 3.32a3.814 3.814 0 0 1-1.763-.498v.05c0 1.933 1.34 3.546 3.122 3.911-.326.094-.67.14-1.025.14-.25 0-.495-.023-.732-.07.495 1.585 1.93 2.738 3.634 2.769a7.68 7.68 0 0 1-5.76 1.654 10.83 10.83 0 0 0 5.964 1.79c7.157 0 11.069-6.077 11.069-11.35 0-.173-.003-.346-.01-.516a7.99 7.99 0 0 0 1.94-2.065 7.62 7.62 0 0 1-2.234.628 3.983 3.983 0 0 0 1.711-2.207"/></g></symbol><symbol id="twitter-with-circle"><path d="M10 .4C4.698.4.4 4.698.4 10s4.298 9.6 9.6 9.6 9.6-4.298 9.6-9.6S15.302.4 10 .4zm3.905 7.864c.004.082.005.164.005.244 0 2.5-1.901 5.381-5.379 5.381a5.335 5.335 0 0 1-2.898-.85c.147.018.298.025.451.025.886 0 1.701-.301 2.348-.809a1.895 1.895 0 0 1-1.766-1.312 1.9 1.9 0 0 0 .853-.033 1.892 1.892 0 0 1-1.517-1.854v-.023c.255.141.547.227.857.237a1.89 1.89 0 0 1-.585-2.526 5.376 5.376 0 0 0 3.897 1.977 1.891 1.891 0 0 1 3.222-1.725 3.797 3.797 0 0 0 1.2-.459 1.9 1.9 0 0 1-.831 1.047 3.799 3.799 0 0 0 1.086-.299 3.834 3.834 0 0 1-.943.979z"/></symbol><symbol id="twitter"><path d="M17.316 6.246c.008.162.011.326.011.488 0 4.99-3.797 10.742-10.74 10.742-2.133 0-4.116-.625-5.787-1.697a7.577 7.577 0 0 0 5.588-1.562 3.779 3.779 0 0 1-3.526-2.621 3.858 3.858 0 0 0 1.705-.065 3.779 3.779 0 0 1-3.028-3.703v-.047a3.766 3.766 0 0 0 1.71.473 3.775 3.775 0 0 1-1.168-5.041 10.716 10.716 0 0 0 7.781 3.945 3.813 3.813 0 0 1-.097-.861 3.773 3.773 0 0 1 3.774-3.773 3.77 3.77 0 0 1 2.756 1.191 7.602 7.602 0 0 0 2.397-.916 3.789 3.789 0 0 1-1.66 2.088 7.55 7.55 0 0 0 2.168-.594 7.623 7.623 0 0 1-1.884 1.953z"/></symbol><symbol id="user"><path d="M7.725 2.146c-1.016.756-1.289 1.953-1.239 2.59.064.779.222 1.793.222 1.793s-.313.17-.313.854c.109 1.717.683.976.801 1.729.284 1.814.933 1.491.933 2.481 0 1.649-.68 2.42-2.803 3.334C3.196 15.845 1 17 1 19v1h18v-1c0-2-2.197-3.155-4.328-4.072-2.123-.914-2.801-1.684-2.801-3.334 0-.99.647-.667.932-2.481.119-.753.692-.012.803-1.729 0-.684-.314-.854-.314-.854s.158-1.014.221-1.793c.065-.817-.398-2.561-2.3-3.096-.333-.34-.558-.881.466-1.424-2.24-.105-2.761 1.067-3.954 1.929z"/></symbol><symbol id="users"><path d="M15.989 19.129c0-2.246-2.187-3.389-4.317-4.307-2.123-.914-2.801-1.684-2.801-3.334 0-.989.648-.667.932-2.481.12-.752.692-.012.802-1.729 0-.684-.313-.854-.313-.854s.159-1.013.221-1.793c.064-.817-.398-2.56-2.301-3.095-.332-.341-.557-.882.467-1.424-2.24-.104-2.761 1.068-3.954 1.93-1.015.756-1.289 1.953-1.24 2.59.065.78.223 1.793.223 1.793s-.314.17-.314.854c.11 1.718.684.977.803 1.729.284 1.814.933 1.492.933 2.481 0 1.65-.212 2.21-2.336 3.124C.663 15.53 0 17 .011 19.129.014 19.766 0 20 0 20h16s-.011-.234-.011-.871zm2.539-5.764c-1.135-.457-1.605-1.002-1.605-2.066 0-.641.418-.432.602-1.603.077-.484.447-.008.518-1.115 0-.441-.202-.551-.202-.551s.103-.656.143-1.159c.05-.627-.364-2.247-2.268-2.247s-2.318 1.62-2.269 2.247c.042.502.144 1.159.144 1.159s-.202.109-.202.551c.071 1.107.441.631.518 1.115.184 1.172.602.963.602 1.603 0 1.064-.438 1.562-1.809 2.152-.069.029-.12.068-.183.102 1.64.712 4.226 1.941 4.838 4.447H20v-2.318c0-1-.273-1.834-1.472-2.317z"/></symbol><symbol id="vimeo-with-circle"><path d="M10 .4C4.698.4.4 4.698.4 10s4.298 9.6 9.6 9.6 9.6-4.298 9.6-9.6S15.302.4 10 .4zm4.401 7.75c-.508 2.916-3.348 5.387-4.201 5.951-.854.562-1.634-.227-1.916-.824-.324-.682-1.293-4.373-1.547-4.68s-1.016.307-1.016.307l-.369-.494s1.547-1.883 2.724-2.117c1.248-.25 1.246 1.951 1.546 3.174.291 1.183.486 1.859.739 1.859s.739-.658 1.269-1.67c.532-1.012-.022-1.906-1.061-1.27.415-2.54 4.34-3.152 3.832-.236z"/></symbol><symbol id="vimeo"><path d="M18.91 5.84c-1.006 5.773-6.625 10.66-8.315 11.777-1.69 1.115-3.233-.447-3.792-1.631-.641-1.347-2.559-8.656-3.062-9.261s-2.01.605-2.01.605L1 6.354s3.061-3.725 5.391-4.191c2.47-.493 2.466 3.864 3.06 6.282.574 2.342.961 3.68 1.463 3.68s1.462-1.305 2.512-3.305c1.053-2.004-.045-3.772-2.101-2.514.823-5.027 8.591-6.236 7.585-.466z"/></symbol><symbol id="youtube-with-circle"><path d="M11.603 9.833L9.357 8.785C9.161 8.694 9 8.796 9 9.013v1.974c0 .217.161.319.357.228l2.245-1.048c.197-.092.197-.242.001-.334zM10 .4C4.698.4.4 4.698.4 10s4.298 9.6 9.6 9.6 9.6-4.298 9.6-9.6S15.302.4 10 .4zm0 13.5c-4.914 0-5-.443-5-3.9s.086-3.9 5-3.9 5 .443 5 3.9-.086 3.9-5 3.9z"/></symbol><symbol id="youtube"><path d="M10 2.3C.172 2.3 0 3.174 0 10s.172 7.7 10 7.7 10-.874 10-7.7-.172-7.7-10-7.7zm3.205 8.034l-4.49 2.096c-.393.182-.715-.022-.715-.456V8.026c0-.433.322-.638.715-.456l4.49 2.096c.393.184.393.484 0 .668z"/></symbol></svg>