<?xml version="1.0" encoding="UTF-8"?>
<svg width="372px" height="129px" viewBox="0 0 372 129" version="1.1" xmlns="http://www.w3.org/2000/svg" xmlns:xlink="http://www.w3.org/1999/xlink">
    <!-- Generator: Sketch 52.6 (67491) - http://www.bohemiancoding.com/sketch -->
    <title>step number copy</title>
    <desc>Created with Sketch.</desc>
    <g id="Desktop" stroke="none" stroke-width="1" fill="none" fill-rule="evenodd">
        <g id="Metodo-Samat" transform="translate(-532.000000, -684.000000)">
            <g id="Steps" transform="translate(120.000000, 592.000000)">
                <g id="TEXT-Copy-2" transform="translate(408.000000, 60.000000)">
                    <g id="step-number-copy">
                        <g id="Recurso-1" transform="translate(16.000000, 32.000000)">
                            <circle id="Oval" fill="#83CACB" cx="50" cy="79" r="50"></circle>
                            <ellipse id="Oval" fill="#E4224C" cx="93.5" cy="24" rx="23.5" ry="24"></ellipse>
                            <path id="Path-2" d="M359.924306,73.2982247 L327.643825,70.2616964 L342.98524,45.6519224 L359.924306,73.2982247 Z M119.586195,63.5272148 L116.413805,59.66251 C117.462351,58.8017981 118.518308,57.9559938 119.581673,57.1251011 L122.660212,61.0649737 C121.628473,61.8711545 120.603801,62.6919002 119.586195,63.5272148 Z M125.795556,58.6760657 L122.814234,54.6621254 C123.903852,53.8528203 125.001027,53.058751 126.105756,52.2799217 L128.986753,56.3664672 C127.9158,57.1214846 126.852069,57.8913494 125.795556,58.6760657 Z M132.23377,54.1376075 L129.456091,49.9801445 C130.583504,49.2268988 131.718562,48.4891075 132.861263,47.7667741 L135.532887,51.99317 C134.425855,52.6929566 133.32615,53.4077678 132.23377,54.1376075 Z M138.903205,49.9226243 L136.340831,45.6291124 C137.506004,44.933736 138.6789,44.254016 139.859515,43.5899555 L142.310722,47.9478889 C141.167453,48.5909433 140.031615,49.2491873 138.903205,49.9226243 Z M145.755441,46.0681978 L143.417107,41.6486736 C144.614523,41.0151307 145.819662,40.3972923 147.032521,39.7951611 L149.255884,44.2736269 C148.081606,44.8566048 146.914793,45.4547942 145.755441,46.0681978 Z M152.816229,42.5633056 L150.709843,38.0286459 C151.938628,37.4578655 153.175122,36.9028104 154.419321,36.3634825 L156.407901,40.9510251 C155.203188,41.4732371 154.005965,42.0106632 152.816229,42.5633056 Z M160.057441,39.4248205 L158.188116,34.7874048 C159.442757,34.2816637 160.705027,33.7915305 161.97492,33.3170063 L163.725085,38.000693 C162.495086,38.4603102 161.272539,38.935019 160.057441,39.4248205 Z M167.40294,36.6790241 L165.771353,31.9527228 C167.048992,31.5116635 168.334154,31.086039 169.626833,30.6758495 L171.139109,35.4416675 C169.88633,35.839196 168.640942,36.2516481 167.40294,36.6790241 Z M174.913944,34.2955012 L173.520839,29.4934954 C174.81841,29.1170586 176.123369,28.7558215 177.435713,28.4097837 L178.710537,33.2445354 C177.437707,33.5801543 176.172177,33.9304764 174.913944,34.2955012 Z M182.543316,32.2836009 L181.386128,27.4193523 C182.698685,27.1070993 184.018454,26.8097157 185.345432,26.5272005 L186.386603,31.4175956 C185.098345,31.6918672 183.817251,31.980536 182.543316,32.2836009 Z M190.267095,30.6390623 L189.340962,25.725583 C190.666079,25.4758143 191.99822,25.2405558 193.337384,25.0198059 L194.150617,29.9532278 C192.849099,30.1677721 191.554593,30.3963841 190.267095,30.6390623 Z M198.059401,29.3541821 L197.357455,24.4037001 C198.690986,24.2146141 200.03133,24.0396182 201.378484,23.8787106 L201.971482,28.8434214 C200.660628,28.9999933 199.356602,29.1702475 198.059401,29.3541821 Z M205.91404,28.4157781 L205.428315,23.4394269 C206.767278,23.3087353 208.112828,23.1916832 209.464966,23.0882686 L209.846264,28.0737085 C208.528896,28.1744639 207.218155,28.2884878 205.91404,28.4157781 Z M213.729375,27.8162272 L213.448657,22.8241137 C214.790831,22.7486402 216.13937,22.6863498 217.49427,22.6372405 L217.67538,27.6339593 C216.353625,27.6818673 215.03829,27.7426239 213.729375,27.8162272 Z M221.62812,27.5293152 L221.544158,22.5300202 C222.733909,22.5100386 223.928474,22.5000324 225.127919,22.5000001 C225.286976,22.5 225.364708,22.5001075 225.595903,22.5006454 L225.581943,27.5006259 C225.357814,27.5001044 225.282345,27.5 225.127987,27.5000001 C223.956497,27.5000316 222.789874,27.5098038 221.62812,27.5293152 Z M229.522221,27.559708 L229.657863,22.5615482 C231.007206,22.5981673 232.359618,22.651126 233.715095,22.7204222 L233.459813,27.713901 C232.14414,27.6466398 230.831611,27.5952428 229.522221,27.559708 Z M237.396888,27.9618297 L237.769682,22.9757467 C239.114546,23.076298 240.46239,23.1927857 241.813213,23.3252073 L241.3254,28.3013542 C240.012815,28.172681 238.703312,28.059507 237.396888,27.9618297 Z M245.251301,28.7313198 L245.851711,23.7674999 C247.188539,23.9291988 248.528251,24.1063645 249.870845,24.2989943 L249.160738,29.2483122 C247.854588,29.0609112 246.551443,28.8885813 245.251301,28.7313198 Z M253.056869,29.850538 L253.873815,24.9177295 C255.20171,25.1376485 256.532395,25.3725639 257.865869,25.6224732 L256.944843,30.5369123 C255.645927,30.2934796 254.349936,30.064689 253.056869,29.850538 Z M260.823748,31.3055772 L261.846043,26.4112016 C263.16144,26.6859504 264.479524,26.9751661 265.800296,27.2788461 L264.679899,32.1517006 C263.391685,31.8555063 262.106301,31.573466 260.823748,31.3055772 Z M268.53569,33.0783984 L269.751597,28.2284942 C271.054875,28.5552358 272.360748,28.8959453 273.669213,29.2506205 L272.361107,34.0764738 C271.083228,33.7300894 269.80809,33.3973984 268.53569,33.0783984 Z M276.182662,35.1507975 L277.580332,30.3501186 C278.868581,30.7251796 280.159324,31.1136698 281.452559,31.5155872 L279.968649,36.2903134 C278.704014,35.8972847 277.442019,35.5174468 276.182662,35.1507975 Z M283.713438,37.490146 L285.280231,32.7419716 C286.553971,33.1622778 287.830112,33.5955093 289.108654,34.0416642 L287.461292,38.7624905 C286.209464,38.3256574 284.960179,37.9015432 283.713438,37.490146 Z M291.192089,40.0992649 L292.917317,35.4063356 C294.174915,35.8686573 295.434819,36.3433886 296.69703,36.8305279 L294.896748,41.4951806 C293.659417,41.0176437 292.424531,40.5523391 291.192089,40.0992649 Z M298.587925,42.9531174 L300.46078,38.317126 C301.702907,38.8189224 302.947254,39.3326474 304.19382,39.8582997 L302.251081,44.4654421 C301.027678,43.9495579 299.806626,43.4454501 298.587925,42.9531174 Z M305.897338,46.0348114 L307.907572,41.4567159 C309.133412,41.9949803 310.361386,42.5446969 311.591494,43.1058647 L309.516266,47.6548678 C308.3077,47.1035272 307.10139,46.5635088 305.897338,46.0348114 Z M313.123809,49.3310652 L315.261895,44.8112656 C316.471394,45.3834178 317.682944,45.9665643 318.896546,46.5607042 L316.698036,51.0514229 C315.504461,50.4670872 314.313051,49.8936349 313.123809,49.3310652 Z M320.256898,52.8227328 L322.513786,48.3610673 C323.707233,48.96476 324.902652,49.5790129 326.100045,50.2038252 L323.786967,54.6366198 C322.608197,54.0215254 321.431507,53.4168966 320.256898,52.8227328 Z M327.300315,56.4976022 L329.66767,52.0935551 C330.845141,52.7264937 332.02451,53.3695769 333.205778,54.022804 L330.786152,58.398351 C329.622209,57.7547041 328.460263,57.1211214 327.300315,56.4976022 Z" fill="#83CACB" fill-rule="nonzero"></path>
                        </g>
                        <text id="2" font-family="BaiJamjuree-Bold, Bai Jamjuree" font-size="150" font-weight="bold" fill="#6D6B6E">
                            <tspan x="0" y="150">2</tspan>
                        </text>
                    </g>
                </g>
            </g>
        </g>
    </g>
</svg>