<?xml version="1.0" encoding="UTF-8"?>
<svg width="375px" height="129px" viewBox="0 0 375 129" version="1.1" xmlns="http://www.w3.org/2000/svg" xmlns:xlink="http://www.w3.org/1999/xlink">
    <!-- Generator: Sketch 52.6 (67491) - http://www.bohemiancoding.com/sketch -->
    <title>step number</title>
    <desc>Created with Sketch.</desc>
    <g id="Desktop" stroke="none" stroke-width="1" fill="none" fill-rule="evenodd">
        <g id="Metodo-Samat" transform="translate(-122.000000, -624.000000)">
            <g id="Steps" transform="translate(120.000000, 592.000000)">
                <g id="TEXT">
                    <g id="step-number">
                        <g id="Recurso-1" transform="translate(15.000000, 32.000000)">
                            <circle id="Oval" fill="#83CACB" cx="50" cy="79" r="50"></circle>
                            <ellipse id="Oval" fill="#E4224C" cx="93.5" cy="24" rx="23.5" ry="24"></ellipse>
                            <path id="Path-2" d="M361.924306,64.2982247 L329.643825,61.2616964 L344.98524,36.6519224 L361.924306,64.2982247 Z M121.586195,54.5272148 L118.413805,50.66251 C119.462351,49.8017981 120.518308,48.9559938 121.581673,48.1251011 L124.660212,52.0649737 C123.628473,52.8711545 122.603801,53.6919002 121.586195,54.5272148 Z M127.795556,49.6760657 L124.814234,45.6621254 C125.903852,44.8528203 127.001027,44.058751 128.105756,43.2799217 L130.986753,47.3664672 C129.9158,48.1214846 128.852069,48.8913494 127.795556,49.6760657 Z M134.23377,45.1376075 L131.456091,40.9801445 C132.583504,40.2268988 133.718562,39.4891075 134.861263,38.7667741 L137.532887,42.99317 C136.425855,43.6929566 135.32615,44.4077678 134.23377,45.1376075 Z M140.903205,40.9226243 L138.340831,36.6291124 C139.506004,35.933736 140.6789,35.254016 141.859515,34.5899555 L144.310722,38.9478889 C143.167453,39.5909433 142.031615,40.2491873 140.903205,40.9226243 Z M147.755441,37.0681978 L145.417107,32.6486736 C146.614523,32.0151307 147.819662,31.3972923 149.032521,30.7951611 L151.255884,35.2736269 C150.081606,35.8566048 148.914793,36.4547942 147.755441,37.0681978 Z M154.816229,33.5633056 L152.709843,29.0286459 C153.938628,28.4578655 155.175122,27.9028104 156.419321,27.3634825 L158.407901,31.9510251 C157.203188,32.4732371 156.005965,33.0106632 154.816229,33.5633056 Z M162.057441,30.4248205 L160.188116,25.7874048 C161.442757,25.2816637 162.705027,24.7915305 163.97492,24.3170063 L165.725085,29.000693 C164.495086,29.4603102 163.272539,29.935019 162.057441,30.4248205 Z M169.40294,27.6790241 L167.771353,22.9527228 C169.048992,22.5116635 170.334154,22.086039 171.626833,21.6758495 L173.139109,26.4416675 C171.88633,26.839196 170.640942,27.2516481 169.40294,27.6790241 Z M176.913944,25.2955012 L175.520839,20.4934954 C176.81841,20.1170586 178.123369,19.7558215 179.435713,19.4097837 L180.710537,24.2445354 C179.437707,24.5801543 178.172177,24.9304764 176.913944,25.2955012 Z M184.543316,23.2836009 L183.386128,18.4193523 C184.698685,18.1070993 186.018454,17.8097157 187.345432,17.5272005 L188.386603,22.4175956 C187.098345,22.6918672 185.817251,22.980536 184.543316,23.2836009 Z M192.267095,21.6390623 L191.340962,16.725583 C192.666079,16.4758143 193.99822,16.2405558 195.337384,16.0198059 L196.150617,20.9532278 C194.849099,21.1677721 193.554593,21.3963841 192.267095,21.6390623 Z M200.059401,20.3541821 L199.357455,15.4037001 C200.690986,15.2146141 202.03133,15.0396182 203.378484,14.8787106 L203.971482,19.8434214 C202.660628,19.9999933 201.356602,20.1702475 200.059401,20.3541821 Z M207.91404,19.4157781 L207.428315,14.4394269 C208.767278,14.3087353 210.112828,14.1916832 211.464966,14.0882686 L211.846264,19.0737085 C210.528896,19.1744639 209.218155,19.2884878 207.91404,19.4157781 Z M215.729375,18.8162272 L215.448657,13.8241137 C216.790831,13.7486402 218.13937,13.6863498 219.49427,13.6372405 L219.67538,18.6339593 C218.353625,18.6818673 217.03829,18.7426239 215.729375,18.8162272 Z M223.62812,18.5293152 L223.544158,13.5300202 C224.733909,13.5100386 225.928474,13.5000324 227.127919,13.5000001 C227.286976,13.5 227.364708,13.5001075 227.595903,13.5006454 L227.581943,18.5006259 C227.357814,18.5001044 227.282345,18.5 227.127987,18.5000001 C225.956497,18.5000316 224.789874,18.5098038 223.62812,18.5293152 Z M231.522221,18.559708 L231.657863,13.5615482 C233.007206,13.5981673 234.359618,13.651126 235.715095,13.7204222 L235.459813,18.713901 C234.14414,18.6466398 232.831611,18.5952428 231.522221,18.559708 Z M239.396888,18.9618297 L239.769682,13.9757467 C241.114546,14.076298 242.46239,14.1927857 243.813213,14.3252073 L243.3254,19.3013542 C242.012815,19.172681 240.703312,19.059507 239.396888,18.9618297 Z M247.251301,19.7313198 L247.851711,14.7674999 C249.188539,14.9291988 250.528251,15.1063645 251.870845,15.2989943 L251.160738,20.2483122 C249.854588,20.0609112 248.551443,19.8885813 247.251301,19.7313198 Z M255.056869,20.850538 L255.873815,15.9177295 C257.20171,16.1376485 258.532395,16.3725639 259.865869,16.6224732 L258.944843,21.5369123 C257.645927,21.2934796 256.349936,21.064689 255.056869,20.850538 Z M262.823748,22.3055772 L263.846043,17.4112016 C265.16144,17.6859504 266.479524,17.9751661 267.800296,18.2788461 L266.679899,23.1517006 C265.391685,22.8555063 264.106301,22.573466 262.823748,22.3055772 Z M270.53569,24.0783984 L271.751597,19.2284942 C273.054875,19.5552358 274.360748,19.8959453 275.669213,20.2506205 L274.361107,25.0764738 C273.083228,24.7300894 271.80809,24.3973984 270.53569,24.0783984 Z M278.182662,26.1507975 L279.580332,21.3501186 C280.868581,21.7251796 282.159324,22.1136698 283.452559,22.5155872 L281.968649,27.2903134 C280.704014,26.8972847 279.442019,26.5174468 278.182662,26.1507975 Z M285.713438,28.490146 L287.280231,23.7419716 C288.553971,24.1622778 289.830112,24.5955093 291.108654,25.0416642 L289.461292,29.7624905 C288.209464,29.3256574 286.960179,28.9015432 285.713438,28.490146 Z M293.192089,31.0992649 L294.917317,26.4063356 C296.174915,26.8686573 297.434819,27.3433886 298.69703,27.8305279 L296.896748,32.4951806 C295.659417,32.0176437 294.424531,31.5523391 293.192089,31.0992649 Z M300.587925,33.9531174 L302.46078,29.317126 C303.702907,29.8189224 304.947254,30.3326474 306.19382,30.8582997 L304.251081,35.4654421 C303.027678,34.9495579 301.806626,34.4454501 300.587925,33.9531174 Z M307.897338,37.0348114 L309.907572,32.4567159 C311.133412,32.9949803 312.361386,33.5446969 313.591494,34.1058647 L311.516266,38.6548678 C310.3077,38.1035272 309.10139,37.5635088 307.897338,37.0348114 Z M315.123809,40.3310652 L317.261895,35.8112656 C318.471394,36.3834178 319.682944,36.9665643 320.896546,37.5607042 L318.698036,42.0514229 C317.504461,41.4670872 316.313051,40.8936349 315.123809,40.3310652 Z M322.256898,43.8227328 L324.513786,39.3610673 C325.707233,39.96476 326.902652,40.5790129 328.100045,41.2038252 L325.786967,45.6366198 C324.608197,45.0215254 323.431507,44.4168966 322.256898,43.8227328 Z M329.300315,47.4976022 L331.66767,43.0935551 C332.845141,43.7264937 334.02451,44.3695769 335.205778,45.022804 L332.786152,49.398351 C331.622209,48.7547041 330.460263,48.1211214 329.300315,47.4976022 Z" fill="#83CACB" fill-rule="nonzero"></path>
                        </g>
                        <text id="1" font-family="BaiJamjuree-Bold, Bai Jamjuree" font-size="150" font-weight="bold" fill="#6D6B6E">
                            <tspan x="0" y="150">1</tspan>
                        </text>
                    </g>
                </g>
            </g>
        </g>
    </g>
</svg>