<svg xmlns="http://www.w3.org/2000/svg" viewBox="0 0 280 34.76"><defs><style>.cls-1{fill:#492775;}</style></defs><title>logo-samat</title><g id="Capa_2" data-name="Capa 2"><g id="Capa_1-2" data-name="Capa 1"><path class="cls-1" d="M49.87,0V6.69H11.41S7.65,7,7.65,10.49a3.68,3.68,0,0,0,3.88,3.92H37.89s12.9-1,12.9,10.14c0,6.8-7.3,10.2-10.1,10.2H.91V28.71H36.75s6,.63,6-4-4.08-4.12-4.08-4.12H12.72S0,21.21,0,11.22,9.28,0,13.24,0Z"/><path class="cls-1" d="M97.61,8.19S94.07,0,87.66,0h-14s-8.35.35-11,8.41-8.35,26.34-8.35,26.34h8.47l2.62-8.15H89.64l-1.92-6H67.38l3.36-10.46a4.85,4.85,0,0,1,4.92-3.57h10s3.09-.46,4.69,4.15,7.09,24,7.09,24h9.15Z"/><path class="cls-1" d="M192,8.19S195.55,0,202,0h14.06s8.41.35,11.07,8.41,8.41,26.34,8.41,26.34H227l-2.64-8.15H200l1.94-6h20.49l-3.38-10.46a4.87,4.87,0,0,0-5-3.57h-10s-3.11-.46-4.73,4.15-7.15,24-7.15,24H183Z"/><polygon class="cls-1" points="232.97 0.01 232.97 6.77 252.18 6.77 252.18 34.76 260.79 34.76 260.63 6.86 280 6.86 280 0.01 232.97 0.01"/><path class="cls-1" d="M143.88,26.54s-4.15.41-4.15-5.12V11.61S141.19,0,128.67,0H123s-11.16-.69-11.16,11.7V34.76h8.13V13.85s-.42-7.07,4.57-7.07h3s4.61-.54,4.61,6.53v9.5s-.85,9.39,9.91,9.39h5.45c10.76,0,9.91-9.39,9.91-9.39v-9.5c0-7.07,4.61-6.53,4.61-6.53h3c5,0,4.57,7.07,4.57,7.07V34.76h8.13V11.71C177.7-.68,166.54,0,166.54,0h-5.69c-12.53,0-11.06,11.6-11.06,11.6v9.82c0,5.53-4.15,5.12-4.15,5.12Z"/></g></g></svg>