<?xml version="1.0" encoding="UTF-8"?>
<svg width="40px" height="40px" viewBox="0 0 40 40" version="1.1" xmlns="http://www.w3.org/2000/svg" xmlns:xlink="http://www.w3.org/1999/xlink">
    <!-- Generator: Sketch 52.6 (67491) - http://www.bohemiancoding.com/sketch -->
    <title>Twitter</title>
    <desc>Created with Sketch.</desc>
    <g id="Page-1" stroke="none" stroke-width="1" fill="none" fill-rule="evenodd">
        <g id="Twitter" fill="#E6EBF1">
            <g id="Social-Icon">
                <g id="Twitter">
                    <path d="M19.9827848,39.9650633 C8.96455697,39.9650633 0,31.0010127 0,19.9827848 C0,8.96405063 8.96455697,0 19.9827848,0 C31.001519,0 39.9655697,8.96405063 39.9655697,19.9827848 C39.9655697,31.0010127 31.001519,39.9650633 19.9827848,39.9650633 Z M19.9827848,1.51898735 C9.80202527,1.51898735 1.51898735,9.80151902 1.51898735,19.9827848 C1.51898735,30.1635443 9.80202527,38.4460759 19.9827848,38.4460759 C30.1640506,38.4460759 38.4465822,30.1635443 38.4465822,19.9827848 C38.4465822,9.80151902 30.1640506,1.51898735 19.9827848,1.51898735 Z" id="Twitter-Circle" fill-rule="nonzero"></path>
                    <path d="M28.5670886,12.4440506 C27.8146835,12.9007595 26.9832911,13.2329114 26.0946835,13.4106329 C25.3868354,12.6359494 24.3751899,12.1518987 23.2551899,12.1518987 C21.1083544,12.1518987 19.3660759,13.9382278 19.3660759,16.1412659 C19.3660759,16.4536709 19.3994937,16.7574684 19.4663291,17.0496203 C16.2329114,16.883038 13.3665822,15.2967089 11.4465822,12.88 C11.1113924,13.4713924 10.92,14.1574684 10.92,14.8875949 C10.92,16.2713924 11.6065822,17.4926582 12.6511392,18.2081013 C12.0141772,18.1888608 11.4131646,18.0075949 10.8875949,17.7103797 L10.8875949,17.7594937 C10.8875949,19.6931646 12.2288608,21.3063291 14.0101265,21.6713924 C13.6840506,21.7650633 13.3397468,21.8116456 12.9848101,21.8116456 C12.7341772,21.8116456 12.4896203,21.7878481 12.2526582,21.7412659 C12.7478481,23.3255697 14.1837975,24.4794937 15.8865822,24.5098735 C14.555443,25.5807595 12.876962,26.2187341 11.0546835,26.2187341 C10.7407595,26.2187341 10.4303797,26.2005063 10.1265822,26.1640506 C11.8481013,27.2941772 13.8941772,27.9549367 16.0906329,27.9549367 C23.2475949,27.9549367 27.16,21.876962 27.16,16.604557 C27.16,16.430886 27.156962,16.2577216 27.1503797,16.0875949 C27.9103797,15.524557 28.5706329,14.8227848 29.0901265,14.0227848 C28.3934178,14.3397468 27.643038,14.5544303 26.8562025,14.6506329 C27.6597468,14.1574684 28.2764557,13.3751899 28.5670886,12.4440506" id="Path"></path>
                </g>
            </g>
        </g>
    </g>
</svg>